<?xml version="1.0" standalone="no"?>
<!DOCTYPE svg PUBLIC "-//W3C//DTD SVG 1.1//EN" "http://www.w3.org/Graphics/SVG/1.1/DTD/svg11.dtd" >
<svg xmlns="http://www.w3.org/2000/svg">
<metadata>Generated by IcoMoon</metadata>
<defs>
<font id="icomoon" horiz-adv-x="1024">
<font-face units-per-em="1024" ascent="819.8005865102639" descent="-204.19941348973606" />
<missing-glyph horiz-adv-x="1024" />
<glyph unicode="&#x20;" d="" />
<glyph unicode="&#xe900;" glyph-name="start" d="M1024.947 418.311l-396.454 127.1 13.626 42.219-19.207 6.157-110.439-342.049-110.446 342.049-19.181-6.157 13.626-42.219-396.474-127.1 89.496-277.166 396.488 127.12 15.905-49.294-50.808-141.376 19.181-6.17 42.219 114.76 42.219-114.76 19.181 6.17-50.815 141.376 15.918 49.294 396.474-127.127 25.203 78.061h0.020l39.091 121.057 25.177 78.054zM50.54 327.3l377.3 120.957 26.744-82.824-377.28-120.99-26.764 82.858zM25.344 405.361l377.3 120.957 19.033-58.948-377.294-120.97-19.040 58.961zM102.513 166.395l-19.040 58.955 377.287 120.957 19.033-58.955-377.28-120.957zM999.617 405.361l-19.040-58.961-377.287 120.963 19.027 58.948 377.3-120.95zM947.657 244.442l-377.28 120.963 26.744 82.838 377.287-120.95-26.75-82.851zM922.454 166.395l-377.3 120.977 19.033 58.935 377.307-120.95-19.040-58.961z" />
<glyph unicode="&#xe901;" glyph-name="zen_contact_mail" d="M230.113 604.957c-4.988 1.845-10.557 0.718-14.35-2.904-3.759-3.622-5.023-9.088-3.212-13.94l179.58-479.632c4.544-12.095 14.623-21.491 27.3-25.25s26.479-1.503 37.139 6.116l167.861 119.207-385.64 370.709 436.138-334.834 122.795 87.193c11.207 7.961 17.050 21.252 15.238 34.713-1.845 13.427-11.036 24.771-23.985 29.623l-558.865 208.998zM558.933 113.982c-1.162-1.64 42.196-29.35 75.372-50.225 8.234-5.193 18.621-6.013 27.641-2.187s15.477 11.753 17.254 21.184l23.814 127.168 1.025 5.569-145.106-101.509z" />
<glyph unicode="&#xe902;" glyph-name="zen_contact_phone" d="M711.351 225.332c-33.244 28.222-66.932 45.339-99.732 17.118l-19.577-17.084c-14.35-12.368-40.966-70.179-144.013 47.697-103.047 117.738-41.718 136.052-27.368 148.352l19.68 17.050c32.629 28.29 20.329 63.857-3.212 100.518l-14.213 22.209c-23.643 36.559-49.371 60.577-82.102 32.322l-17.698-15.341c-14.452-10.455-54.906-44.519-64.712-109.231-11.788-77.627 25.42-166.529 110.734-264.075 85.177-97.614 168.579-146.643 247.572-145.755 65.702 0.684 105.302 35.704 117.704 48.448l17.732 15.375c32.629 28.188 12.368 56.956-20.875 85.246l-19.919 17.152z" />
<glyph unicode="&#xe903;" glyph-name="zen_contact_pin" d="M504.403 605.709c-113.331-3.793-207.495-88.56-218.393-196.698-2.221-21.627-0.923-42.606 3.041-62.662v0c0 0 0.341-2.357 1.503-6.834 3.519-15.034 8.781-29.588 15.341-43.255 22.823-51.797 75.577-138.409 193.93-232.675 7.243-5.843 17.903-5.843 25.25 0 118.388 94.163 171.141 180.811 194.067 232.812 6.663 13.666 11.822 28.119 15.341 43.255 1.059 4.373 1.538 6.834 1.538 6.834v0c2.7 13.462 4.1 27.231 4.1 41.341-0.034 123.068-106.361 222.254-235.716 217.881zM512.466 279.314c-61.056 0-110.529 47.423-110.529 105.916s49.473 105.916 110.529 105.916 110.529-47.423 110.529-105.916c0-58.493-49.473-105.916-110.529-105.916z" />
<glyph unicode="&#xe904;" glyph-name="zen_contact_skype" d="M763.011 292.948c2.050 12.915 3.109 26.103 3.109 39.6 0 140.084-113.57 253.62-253.654 253.62-13.427 0-26.684-1.093-39.565-3.109-23.336 14.418-50.909 22.789-80.463 22.789-84.665 0-153.272-68.607-153.272-153.272 0-29.554 8.371-57.093 22.823-80.497-2.016-12.915-3.109-26.069-3.109-39.565 0-140.084 113.536-253.586 253.586-253.586 13.462 0 26.684 1.025 39.6 3.075 23.404-14.418 50.943-22.823 80.497-22.823 84.665 0 153.272 68.641 153.272 153.272 0 29.554-8.371 57.093-22.823 80.497zM632.904 217.166c-10.728-15.443-26.479-27.504-47.082-36.216-20.637-8.678-45.032-13.018-73.185-13.018-33.757 0-61.705 5.911-83.777 17.835-15.648 8.541-28.359 19.988-38.13 34.303-9.806 14.316-14.76 28.29-14.76 41.957 0 8.063 3.075 15.068 9.054 20.773 6.048 5.74 13.838 8.644 22.994 8.644 7.516 0 13.975-2.255 19.236-6.731 5.227-4.51 9.6-11.002 13.188-19.612 4.305-9.977 8.952-18.313 13.906-24.975 4.92-6.56 11.89-12.061 20.875-16.366 8.884-4.305 20.739-6.457 35.534-6.457 20.261 0 36.661 4.373 49.166 13.018 12.607 8.713 18.655 19.338 18.655 32.185 0 10.216-3.246 18.348-9.943 24.702-6.765 6.423-15.477 11.309-26.309 14.691-10.865 3.45-25.454 7.107-43.734 10.968-24.532 5.364-45.066 11.582-61.671 18.757-16.639 7.175-29.896 17.015-39.702 29.418-9.84 12.539-14.76 28.085-14.76 46.535 0 17.596 5.193 33.313 15.546 47.013 10.387 13.735 25.386 24.225 44.929 31.57 19.509 7.312 42.435 10.968 68.743 10.968 21.013 0 39.223-2.425 54.598-7.277 15.341-4.852 28.153-11.309 38.369-19.373 10.182-8.063 17.664-16.537 22.379-25.454 4.715-8.952 7.107-17.664 7.107-26.206 0-7.927-3.075-15.102-9.054-21.423s-13.632-9.532-22.584-9.498c-8.063 0-14.384 1.845-18.757 5.809-4.271 3.827-8.747 9.875-13.598 18.313-6.15 11.788-13.462 20.978-22.003 27.538-8.302 6.457-22.038 9.806-41.137 9.772-17.664 0-31.809-3.622-42.469-10.66-10.728-7.175-15.853-15.512-15.888-25.25 0.034-6.116 1.777-11.275 5.296-15.648 3.588-4.441 8.575-8.302 15-11.548 6.423-3.314 12.95-5.843 19.509-7.688 6.628-1.879 17.664-4.613 32.971-8.2 19.202-4.134 36.627-8.747 52.275-13.803 15.614-5.057 28.973-11.173 39.975-18.45 11.104-7.243 19.782-16.502 25.966-27.675 6.252-11.207 9.362-24.873 9.362-40.966 0.068-19.407-5.33-36.832-16.093-52.275z" />
<glyph unicode="&#xe905;" glyph-name="zen_icon_action" d="M472.799-77.454c204.556 0 370.401 165.025 370.401 368.556 0 62.627-15.648 121.565-43.323 173.191-3.041-0.444-6.15-0.615-9.157-0.615-1.743 0-3.553 0.102-5.364 0.171l-47.116 3.622-33.893-33.723c25.864-41.479 40.795-90.337 40.795-142.646 0-149.616-121.907-270.942-272.275-270.942-150.334 0-272.343 121.325-272.343 270.942s121.907 270.942 272.24 270.942c52.65 0 101.748-14.897 143.363-40.625l30.682 30.545-4.168 53.779c-0.341 4.305-0.273 8.61 0.171 12.813-50.909 26.24-108.752 41.137-170.15 41.137-204.454 0-370.299-165.025-370.299-368.556 0.068-203.565 165.879-368.59 370.436-368.59zM472.799 386.359c2.425 0 4.852-0.102 7.277-0.273l69.871 69.529c-23.438 10.934-49.541 17.015-77.114 17.015-100.723 0-182.348-81.214-182.348-181.425 0-100.245 81.625-181.527 182.348-181.527s182.348 81.214 182.348 181.459c0 27.436-6.15 53.437-17.118 76.738l-1.469-1.469-68.436-68.060c0.171-2.391 0.273-4.818 0.273-7.243 0-52.582-42.811-95.223-95.7-95.223-52.925 0-95.632 42.675-95.632 95.223 0 52.582 42.879 95.257 95.7 95.257zM854.509 619.786l21.969 21.866c10.045 9.977 10.045 26.069 0 36.046l-15.204 15.238c-5.023 4.988-11.582 7.482-18.075 7.482s-13.154-2.494-18.075-7.482l-25.147-25.044-5.193 66.693c-0.341 4.886-4.407 7.927-8.644 7.927-2.152 0-4.339-0.786-6.048-2.494l-98.981-98.502c-8.918-8.85-13.496-21.184-12.539-33.723l0.273-3.861 4.75-61.705-191.709-190.752c-3.622-3.622-5.877-8.439-6.218-13.53l-1.743-21.593c-1.025-12.573 8.986-23.234 21.525-23.234 0.341 0 0.684 0 1.127 0l22.925 1.127c5.364 0.239 10.455 2.494 14.179 6.287l194.545 193.588 59.040-4.475c1.127-0.102 2.255-0.102 3.28-0.102 11.412 0 22.379 4.475 30.613 12.573l98.913 98.434c5.193 5.159 1.913 14.111-5.432 14.623l-60.134 4.613z" />
<glyph unicode="&#xe906;" glyph-name="zen_icon_android" d="M206.093 475.159h-2.187c-27.607 0-50.123-22.038-50.123-48.927v-212.859c0-26.957 22.516-48.961 50.123-48.961h2.187c27.607 0 50.123 22.038 50.123 48.961v212.859c0 26.889-22.55 48.927-50.123 48.927zM280.236 131.271c0-24.737 20.739-44.861 46.091-44.861h49.234v-114.971c0-27.025 22.584-48.961 50.157-48.961h2.152c27.641 0 50.225 22.003 50.225 48.961v114.971h68.812v-114.971c0-27.025 22.652-48.961 50.225-48.961h2.118c27.641 0 50.191 22.003 50.191 48.961v114.971h49.268c25.318 0 46.057 20.159 46.057 44.861v336.098h-464.531v-336.098zM628.188 671.173l39.121 58.869c2.528 3.725 1.4 8.781-2.46 11.207-3.827 2.46-9.020 1.435-11.514-2.391l-40.556-60.919c-30.409 12.163-64.404 18.997-100.279 18.997-35.909 0-69.837-6.834-100.313-18.997l-40.488 60.919c-2.46 3.827-7.722 4.852-11.548 2.391-3.861-2.425-4.954-7.482-2.46-11.207l39.155-58.869c-70.554-33.723-118.148-97.273-118.148-170.218 0-4.475 0.273-8.884 0.65-13.257h466.307c0.375 4.373 0.615 8.781 0.615 13.257 0.068 72.946-47.56 136.496-118.080 170.218zM404.397 565.768c-12.368 0-22.448 9.738-22.448 21.866 0 12.095 10.079 21.832 22.448 21.832 12.437 0 22.448-9.703 22.448-21.832s-10.045-21.866-22.448-21.866zM620.604 565.768c-12.368 0-22.448 9.738-22.448 21.866 0 12.095 10.079 21.832 22.448 21.832 12.402 0 22.413-9.703 22.413-21.832s-10.011-21.866-22.413-21.866zM821.060 475.159h-2.118c-27.607 0-50.225-22.038-50.225-48.927v-212.859c0-26.957 22.618-48.961 50.225-48.961h2.118c27.641 0 50.157 22.038 50.157 48.961v212.859c0 26.889-22.55 48.927-50.157 48.927z" />
<glyph unicode="&#xe907;" glyph-name="zen_icon_apple" d="M730.689 284.337c-21.9 110.154 82.718 174.831 82.718 174.831s-40.795 58.972-109.265 74.141c-68.47 15.204-102.739-3.793-136.94-18.040-34.235-14.248-51.318-14.248-51.318-14.248-49.405 0-85.52 52.309-179.648 28.495-64.848-16.4-133.113-91.225-145.448-180.571-12.334-89.38 14.282-203.429 65.6-291.818 51.318-88.457 103.593-121.736 140.698-122.659s74.141 26.582 118.798 33.278c44.656 6.628 72.195-16.195 115.962-28.529 43.7-12.334 59.006-0.854 109.3 41.923 50.396 42.777 96.009 165.436 96.009 165.436s-84.563 27.436-106.463 137.761zM633.724 604.616c48.516 49.439 32.048 125.973 32.048 125.973s-68.129-11.959-113.775-59.45c-45.579-47.525-38.027-122.59-38.027-122.59s71.238 6.663 119.754 56.068z" />
<glyph unicode="&#xe908;" glyph-name="zen_icon_blog" d="M592.588 210.469c53.71 22.175 96.077 52.343 127.168 90.507 31.057 38.198 46.604 79.745 46.604 124.709 0 44.998-15.546 86.545-46.604 124.709-31.057 38.198-73.425 68.368-127.134 90.507s-112.17 33.278-175.309 33.278c-63.106 0-121.531-11.104-175.241-33.244-53.675-22.175-96.077-52.343-127.134-90.507-31.057-38.198-46.604-79.745-46.604-124.743 0-38.506 11.753-74.757 35.225-108.718s55.691-62.593 96.657-85.895c-3.314-7.79-6.697-14.897-10.148-21.354-3.485-6.457-7.619-12.675-12.402-18.689-4.784-5.979-8.507-10.694-11.138-14.077s-6.936-8.2-12.881-14.316c-5.945-6.15-9.772-10.182-11.412-12.129 0 0.341-0.65-0.41-1.982-2.187s-2.084-2.563-2.221-2.425c-0.171 0.171-0.82-0.65-1.982-2.425-1.196-1.743-1.777-2.631-1.777-2.631l-1.23-2.425c-0.478-0.991-0.82-1.948-0.991-2.904s-0.239-2.016-0.239-3.143c0-1.127 0.171-2.152 0.513-3.143 0.65-4.202 2.563-7.585 5.706-10.182s6.525-3.895 10.148-3.895h1.469c16.502 2.255 30.716 4.852 42.64 7.79 50.909 12.95 96.829 33.654 137.829 62.115 29.725-5.193 58.835-7.79 87.262-7.79 63.072-0.034 121.497 11.070 175.207 33.21zM921.476 192.532c23.473 33.791 35.191 70.11 35.191 108.957 0 39.804-12.402 77.012-37.173 111.657-24.805 34.611-58.493 63.413-101.134 86.373 7.585-24.259 11.377-48.859 11.377-73.766 0-43.357-11.070-84.425-33.21-123.273-22.14-38.813-53.881-73.116-95.188-102.875-38.335-27.163-81.966-48.038-130.893-62.593-48.893-14.555-99.972-21.832-153.17-21.832-9.909 0-24.463 0.65-43.631 1.948 66.42-42.709 144.423-64.063 233.973-64.063 28.427 0 57.502 2.597 87.262 7.756 40.966-28.495 86.92-49.166 137.795-62.115 11.89-2.938 26.103-5.5 42.64-7.756 3.963-0.341 7.619 0.786 10.9 3.382 3.314 2.597 5.466 6.15 6.457 10.694-0.171 1.948 0 3.007 0.478 3.143s0.41 1.196-0.239 3.143c-0.65 1.948-0.991 2.904-0.991 2.904l-1.23 2.425c-0.341 0.65-0.888 1.538-1.743 2.665-0.82 1.127-1.503 1.948-1.982 2.425s-1.23 1.298-2.221 2.425c-0.991 1.127-1.64 1.845-1.982 2.187-1.64 1.948-5.466 5.979-11.412 12.129s-10.25 10.934-12.881 14.316c-2.631 3.382-6.355 8.063-11.138 14.077-4.784 5.979-8.918 12.232-12.402 18.689s-6.868 13.564-10.148 21.354c41 23.234 73.22 51.797 96.691 85.622z" />
<glyph unicode="&#xe909;" glyph-name="zen_icon_cart" d="M671.82 502.116h68.88l-102.125 174.455c-8.234 14.145-26.445 18.963-40.659 10.591-14.213-8.2-19.031-26.343-10.66-40.488l84.563-144.559zM438.051 646.675c8.234 14.145 3.553 32.288-10.66 40.488-14.179 8.2-32.425 3.519-40.659-10.591l-102.125-174.626h68.88l84.563 144.73zM854.749 448.611h-684.667c-27.914 0-50.498-22.482-50.498-50.293v-55.76c0-27.777 22.584-50.293 50.498-50.293h15.819l48.722-262.981c6.15-30.989 34.509-55.589 64.063-55.589h146.507c12.915 0 29.691 0 46.775 0v0h30.955c17.084 0 33.893 0 46.775 0h146.507c29.52 0 57.913 24.566 64.063 55.589l49.029 263.118h25.659c27.914 0 50.498 22.482 50.498 50.293v55.725c-0.205 27.709-22.789 50.191-50.704 50.191zM398.35 185.8v-113.4c0-16.229-13.223-28.427-28.563-28.427-16.298 0-28.563 13.188-28.563 28.427v159.046c0 16.229 13.223 28.427 28.563 28.427 16.298 0 28.563-13.154 28.563-28.427v-45.647zM489.985 185.8v-113.4c0-16.229-13.223-28.427-28.563-28.427-16.298 0-28.563 13.188-28.563 28.427v159.046c0 16.229 13.223 28.427 28.563 28.427 15.307 0 28.563-13.154 28.563-28.427v-45.647zM582.098 119.927v-47.56c0-15.273-12.266-28.427-28.563-28.427-15.341 0-28.563 12.198-28.563 28.427v159.012c0 15.273 13.223 28.427 28.563 28.427s28.563-12.198 28.563-28.427v-111.452zM673.733 119.927v-47.56c0-15.273-12.266-28.427-28.563-28.427-15.307 0-28.563 12.198-28.563 28.427v159.012c0 15.273 12.266 28.427 28.563 28.427 15.341 0 28.563-12.198 28.563-28.427v-111.452z" />
<glyph unicode="&#xe90a;" glyph-name="zen_icon_catalogue" d="M253.688 554.596h47.423c17.459 0 23.473-11.377 23.473-25.386v-38.062c0-14.009-6.013-39.052-23.473-39.052h-47.423c-17.459 0-31.604 25.044-31.604 39.052v38.062c0 14.009 14.145 25.386 31.604 25.386zM458.722 554.596h301.179c23.78 0 43.016-11.377 43.016-25.386v-38.062c0-14.009-19.27-39.052-43.016-39.052h-301.179c-23.78 0-31.638 25.044-31.638 39.052v38.062c0 14.009 7.859 25.386 31.638 25.386zM253.688 383.762h47.423c17.459 0 23.473-18.211 23.473-32.219v-38.062c0-14.009-6.013-32.219-23.473-32.219h-47.423c-17.459 0-31.604 18.211-31.604 32.219v38.062c0 14.009 14.145 32.219 31.604 32.219zM458.722 383.762h301.179c23.78 0 43.016-18.211 43.016-32.219v-38.062c0-14.009-19.27-32.219-43.016-32.219h-301.179c-23.78 0-31.638 18.211-31.638 32.219v38.062c0 14.009 7.859 32.219 31.638 32.219zM253.688 212.928h47.423c17.459 0 23.473-25.044 23.473-39.052v-38.062c0-14.009-6.013-25.386-23.473-25.386h-47.423c-17.459 0-31.604 11.377-31.604 25.386v38.062c0 14.009 14.145 39.052 31.604 39.052zM458.722 212.928h301.179c23.78 0 43.016-25.044 43.016-39.052v-38.062c0-14.009-19.27-25.386-43.016-25.386h-301.179c-23.78 0-31.638 11.377-31.638 25.386v38.062c0 14.009 7.859 39.052 31.638 39.052z" />
<glyph unicode="&#xe90b;" glyph-name="zen_icon_check" d="M512.5 640.013c-169.843 0-307.5-137.657-307.5-307.5s137.657-307.5 307.5-307.5 307.5 137.657 307.5 307.5-137.657 307.5-307.5 307.5zM687.878 403.169l-189.079-189.079c-0.375-0.375-0.888-0.513-1.298-0.888-0.341-0.375-0.444-0.854-0.786-1.196-13.359-13.325-34.987-13.325-48.312 0l-112.75 112.75c-13.359 13.359-13.359 34.987 0 48.312 13.359 13.359 34.987 13.359 48.312 0l88.595-88.595 167.007 167.007c14.487 14.521 37.071 15.443 50.43 2.118 13.325-13.359 12.368-35.909-2.118-50.43z" />
<glyph unicode="&#xe90c;" glyph-name="zen_icon_filters" d="M853.894 539.289c-6.321 54.291-179.786 83.572-341.393 83.572-161.54 0-334.936-29.281-341.393-83.538-0.171-0.615-0.273-1.264-0.273-1.948v-70.247c0-2.391 1.264-4.681 3.382-5.945l248.221-151.188v-260.829c0-2.221 1.093-4.339 2.973-5.672 1.264-0.888 2.802-1.366 4.305-1.366 0.718 0 1.435 0.068 2.152 0.307l165.572 49.166c3.041 0.923 5.125 3.622 5.125 6.731v211.663l248.221 151.188c2.084 1.298 3.382 3.553 3.382 5.979v70.247c0 0.615-0.068 1.264-0.273 1.879zM509.767 588.9c182.552 0 278.049-28.188 278.049-43.323 0-1.845-2.938-5.5-10.011-9.327-28.973-9.157-55.487-15.819-81.043-20.5-12.266-2.221-24.907-4.1-37.275-5.911-45.134-4.988-96.931-7.585-149.752-7.585-182.552 0-278.049 28.222-278.049 43.323 0.034 15.136 95.53 43.323 278.083 43.323z" />
<glyph unicode="&#xe90d;" glyph-name="zen_icon_news" d="M826.39 691.434h-448.404c-24.771 0-44.827-20.090-44.827-44.861v-314.061h-134.548c-24.771 0-44.827-20.090-44.827-44.861v-179.443c0-74.245 60.338-134.616 134.514-134.616h448.404c74.175 0 134.514 60.373 134.514 134.616v538.365c0 24.771-20.056 44.861-44.827 44.861zM333.125 108.208c0-24.737-20.090-44.861-44.827-44.861s-44.827 20.125-44.827 44.861v134.582h89.654v-134.582zM557.327 568.57h89.688c24.771 0 44.827-15.307 44.827-34.166s-20.056-34.166-44.827-34.166h-89.688c-24.771 0-44.827 15.307-44.827 34.166s20.056 34.166 44.827 34.166zM736.702 231.037h-269.029c-24.805 0-44.861 15.307-44.861 34.166s20.056 34.166 44.861 34.166h269.029c24.771 0 44.827-15.307 44.827-34.166s-20.056-34.166-44.827-34.166zM736.702 365.654h-269.029c-24.805 0-44.861 15.307-44.861 34.166s20.056 34.166 44.861 34.166h269.029c24.771 0 44.827-15.307 44.827-34.166 0-18.894-20.056-34.166-44.827-34.166z" />
<glyph unicode="&#xe90e;" glyph-name="zen_icon_storytelling" d="M871.149 596.075c0 25.215-21.184 45.202-46.364 43.802-149.821-8.337-230.591-56.75-272.275-96.829-8.541-8.268-13.359-19.68-13.359-31.502v-464.428c0-18.143 20.739-28.461 35.191-17.493 46.604 35.602 125.391 72.023 255.259 78.447 23.302 1.162 41.547 20.5 41.547 43.802v444.201zM195.331 108.105c129.902-6.423 208.69-42.777 255.259-78.447 14.384-11.036 35.191-0.718 35.191 17.493v464.394c0 11.925-4.818 23.336-13.359 31.502-41.684 40.077-122.454 88.491-272.206 96.829-25.181 1.469-46.33-18.518-46.33-43.802v-444.236c0-23.268 18.245-42.64 41.444-43.734z" />
<glyph unicode="&#xe90f;" glyph-name="zen_icon_subscription" d="M383.59 114.631c0 49.029-40.043 88.936-89.209 88.936-49.2 0-89.243-39.907-89.243-88.936s40.043-88.936 89.243-88.936c49.166 0 89.209 39.907 89.209 88.936zM215.148 303.88c71.579 0 138.922-27.914 189.591-78.584 50.669-50.738 78.584-118.32 78.584-190.275 0-5.466 4.441-9.909 9.943-9.909h114.459c5.5 0 9.943 4.441 9.943 9.909 0 222.084-180.571 402.791-402.518 402.791-5.5 0-9.943-4.441-9.943-9.909v-114.082c0-5.5 4.441-9.943 9.943-9.943zM215.318 640.013c-5.5 0-9.977-4.441-9.977-9.909v-114.082c0-5.466 4.441-9.909 9.943-9.909 259.291 0 470.236-211.355 470.236-471.159 0-5.5 4.441-9.943 9.943-9.943h114.425c5.5 0 9.943 4.441 9.943 9.943 0.068 333.638-271.147 605.058-604.511 605.058z" />
<glyph unicode="&#xe910;" glyph-name="zen_icon_windows" d="M188.156 354.139l-0.239 211.048 259.667 35.26v-246.274h-259.427zM490.873 606.734l346.109 50.362v-302.956h-346.109v252.595zM837.084 310.885l-0.102-302.956-346.143 48.688v254.234h346.245zM447.584 62.151l-259.462 35.568v213.166h259.462v-248.734z" />
<glyph unicode="&#xe911;" glyph-name="zen_icon_wow" d="M598.293-20.259c3.519 0 6.56-1.332 9.191-3.963s3.929-5.74 3.929-9.259v-29.964c0-4.1-1.298-7.482-3.929-10.113s-5.706-3.963-9.191-3.963h-170.8c-9.327 0-14.009 4.715-14.009 14.111v29.964c0 3.519 1.298 6.594 3.929 9.259 2.631 2.631 5.979 3.963 10.079 3.963l170.8-0.034zM598.293 65.192c3.519 0 6.56-1.332 9.191-3.963s3.929-6.013 3.929-10.113v-29.93c0-3.519-1.298-6.628-3.929-9.259s-5.706-3.963-9.191-3.963h-170.8c-4.1 0-7.448 1.332-10.079 3.963s-3.929 5.706-3.929 9.259v29.93c0 9.396 4.681 14.111 14.009 14.111h170.8zM774.32 338.252c-8.166 1.162-15.17-0.137-21.013-3.963s-9.327-8.952-10.523-15.409c-1.162-6.457 0.444-12.641 4.818-18.484 4.373-5.877 10.66-9.396 18.825-10.557l72.707-11.446c8.166-1.162 15.17 0.137 21.013 3.963s9.327 9.259 10.523 16.298c1.162 6.457-0.581 12.471-5.262 18.075-4.681 5.569-10.797 8.952-18.382 10.113l-72.707 11.412zM766.461 504.712c-7.004-2.938-12.129-7.653-15.341-14.111s-3.348-12.915-0.444-19.373c2.904-6.457 7.722-10.728 14.452-12.778s13.564-1.606 20.568 1.332l67.445 30.818c7.585 2.938 12.847 7.619 15.75 14.111 2.904 6.457 2.904 12.915 0 19.373s-7.722 10.728-14.452 12.778c-6.731 2.050-13.564 1.332-20.568-2.221l-67.411-29.93zM652.584 617.462c-4.681-6.457-6.423-13.359-5.262-20.705s4.681-12.778 10.523-16.298c5.843-3.519 12.129-4.271 18.825-2.187 6.731 2.050 12.402 6.321 17.084 12.778l40.282 62.525c4.1 6.457 5.706 13.188 4.818 20.261-0.854 7.038-4.237 12.607-10.079 16.741-5.843 3.519-12.129 4.271-18.825 2.187-6.731-2.050-12.402-6.321-17.084-12.778l-40.282-62.525zM251.433 338.252c7.585 1.162 14.452-0.137 20.568-3.963s9.772-8.952 10.934-15.409c1.162-6.457-0.581-12.641-5.262-18.484-4.681-5.877-11.104-9.396-19.27-10.557l-72.707-11.446c-7.585-1.162-14.452 0.137-20.568 3.963s-9.772 9.259-10.934 16.298c-1.162 6.457 0.581 12.471 5.262 18.075 4.681 5.569 11.104 8.952 19.27 10.113l72.707 11.412zM259.325 504.712c7.004-2.938 12.129-7.653 15.341-14.111s3.348-12.915 0.444-19.373c-2.904-6.457-7.893-10.728-14.897-12.778s-14.009-1.606-21.013 1.332l-67.445 30.818c-7.004 2.938-12.129 7.619-15.341 14.111-3.212 6.457-3.348 12.915-0.444 19.373s7.722 10.728 14.452 12.778c6.697 2.050 13.872 1.332 21.457-2.221l67.445-29.93zM372.315 617.462c4.681-6.457 6.423-13.359 5.262-20.705s-4.681-12.778-10.523-16.298c-5.262-3.519-11.377-4.271-18.382-2.187-7.004 2.050-12.539 6.287-16.639 12.778l-40.282 62.525c-4.681 6.457-6.423 13.188-5.262 20.261 1.162 7.038 4.681 12.607 10.523 16.741 5.262 3.519 11.377 4.271 18.382 2.187s12.539-6.321 16.639-12.778l40.282-62.525zM537.852 640.354c0-8.234-2.323-14.965-7.004-20.261s-10.489-7.927-17.527-7.927c-6.423 0-11.959 2.631-16.639 7.927s-7.004 12.027-7.004 20.261v74.005c0 8.2 2.323 14.965 7.004 20.261s10.216 7.927 16.639 7.927c7.004 0 12.847-2.665 17.527-7.927 4.681-5.296 7.004-12.027 7.004-20.261v-74.005zM707.763 403.408c0-1.162-0.137-2.050-0.444-2.631s-0.444-1.469-0.444-2.665v-2.631c0-10.557-1.469-22.311-4.373-35.225-4.1-22.311-11.822-45.339-23.2-69.154-11.377-23.78-23.814-49.166-37.241-76.191-8.747-17.63-14.897-33.62-18.382-48.004s-6.287-26.889-8.302-37.447c-2.050-10.557-4.237-18.928-6.56-25.078s-6.731-9.84-13.154-11.002h-166.426c-6.423 1.162-10.797 4.852-13.12 11.002s-4.51 14.521-6.56 25.078c-2.050 10.557-4.818 23.063-8.302 37.447s-9.635 30.375-18.382 48.004c-13.427 27.025-25.83 52.412-37.207 76.191s-19.134 46.843-23.2 69.154c-1.162 5.877-2.050 11.753-2.631 17.63l-1.743 17.63v7.927c0 28.188 4.818 52.856 14.452 73.971 9.635 21.15 23.063 39.052 40.282 53.744s37.652 25.693 61.329 33.039c23.643 7.346 49.473 11.002 77.525 11.002h1.777c28.016 0 53.881-3.656 77.525-11.002s44.075-18.348 61.295-33.039c17.22-14.691 30.818-32.595 40.727-53.744 9.806-21.15 14.76-45.818 14.76-74.005z" />
<glyph unicode="&#xe912;" glyph-name="zen_load_brief" d="M651.734 412.719l-20.756 18.271-105.69-106.242v358.187h-25.574v-358.187l-5.471 5.509-100.22 100.732-20.756-18.271 139.234-139.964zM115.953 252.14v-270.050h793.095v285.207l-158.478 254.892h-186.897v-25.74h171.265l0.935-1.511 143.769-229.934h-220.029v-61.090c0-37.22-30.135-67.496-67.164-67.496h-159.9c-37.028 0-67.164 30.276-67.164 67.496v61.090h-220.042l144.704 231.445h171.277v25.74h-186.897l-158.478-254.892v-15.157zM141.527 11.033v228.242h198.287v-51.429c0-43.268 33.71-77.169 76.747-77.169h191.88c43.037 0 76.747 33.902 76.747 77.169v51.429h198.287v-231.445h-741.947v3.203z" />
<glyph unicode="&#xe913;" glyph-name="zen_load_presrntation" d="M642.317 108.485h235.571v562.867h-353.318v25.907h-24.306v-25.907h-353.139v-562.867h236.006l-3.433-5.483-76.016-121.604 20.385-13.632 87.945 140.566h201.413l87.945-140.412 20.385 13.632-79.438 126.934zM175.006 133.7h-3.588v514.115h683.817v-514.115h-680.229zM289.486 525.853v-271.855h193.251v271.855h-193.251zM458.432 498.717v-219.516h-144.794v223.104h144.794v-3.588zM564.738 451.45h180.747v-25.215h-180.747v25.215zM564.738 353.602h180.747v-25.215h-180.747v25.215z" />
<glyph unicode="&#xe914;" glyph-name="zen_navigation_arrow_left" d="M745.984 338.176c-4.627 4.601-11.006 7.444-18.048 7.444s-13.421-2.844-18.049-7.446l-431.871-431.871c-3.826-4.447-6.156-10.277-6.156-16.652 0-14.138 11.462-25.6 25.6-25.6 6.374 0 12.204 2.33 16.685 6.184l431.838 431.588c4.677 4.64 7.572 11.070 7.572 18.176s-2.895 13.536-7.571 18.174zM314.112 770.048l431.872-431.872c3.826-4.447 6.156-10.277 6.156-16.652 0-14.138-11.462-25.6-25.6-25.6-6.374 0-12.204 2.33-16.685 6.184l-431.838 431.588c-5.492 4.723-8.948 11.68-8.948 19.444 0 14.138 11.462 25.6 25.6 25.6 7.764 0 14.721-3.456 19.416-8.915z" />
<glyph unicode="&#xe915;" glyph-name="zen_navigation_arrow_right" d="M745.984-93.696l-431.872 431.872c-4.447 3.826-10.277 6.156-16.652 6.156-14.138 0-25.6-11.462-25.6-25.6 0-6.374 2.33-12.204 6.184-16.685l431.844-432.094c4.447-3.826 10.277-6.156 16.652-6.156 14.138 0 25.6 11.462 25.6 25.6 0 6.374-2.33 12.204-6.184 16.685zM745.984 770.048c4.601-4.627 7.444-11.006 7.444-18.048s-2.844-13.421-7.446-18.049l-431.871-432.127c-4.447-3.826-10.277-6.156-16.652-6.156-14.138 0-25.6 11.462-25.6 25.6 0 6.374 2.33 12.204 6.184 16.685l431.844 432.094c4.627 4.601 11.006 7.444 18.048 7.444s13.421-2.844 18.049-7.446z" />
<glyph unicode="&#xe916;" glyph-name="zen_navigation_chat" d="M512.5 622.972c172.559 0 312.959-122.308 312.959-272.65 0-51.455-16.63-101.629-48.098-145.064l-11.633-16.067 1.82-19.757c3.075-33.646 9.148-73.339 20.986-110.214-32.595 9.148-69.521 22.115-100.527 39.821l-22.115 12.633-23.652-9.43c-40.846-16.298-84.486-24.549-129.714-24.549-172.559 0-312.959 122.308-312.959 272.65-0.026 150.317 140.374 272.624 312.933 272.624zM512.5 665.638c-195.57 0-354.676-141.552-354.676-315.598 0-174.020 159.105-315.598 354.676-315.598 50.404 0 99.067 9.225 144.755 27.47 80.463-45.92 191.675-61.73 196.467-62.397 0.539-0.102 1.076-0.128 1.64-0.128 4.433 0 8.558 2.46 10.583 6.483 2.28 4.484 1.383 9.917-2.229 13.479-27.189 26.88-45.92 83.589-52.916 160.002 36.9 50.968 56.375 109.88 56.375 170.689 0 174.045-159.105 315.598-354.676 315.598v0zM704.688 332.512c0-21.229-17.209-38.438-38.438-38.438s-38.438 17.209-38.438 38.438c0 21.229 17.209 38.438 38.438 38.438s38.438-17.209 38.438-38.438zM397.188 332.512c0-21.229-17.209-38.438-38.438-38.438s-38.438 17.209-38.438 38.438c0 21.229 17.209 38.438 38.438 38.438s38.438-17.209 38.438-38.438zM550.938 332.512c0-21.229-17.209-38.438-38.438-38.438s-38.438 17.209-38.438 38.438c0 21.229 17.209 38.438 38.438 38.438s38.438-17.209 38.438-38.438z" />
<glyph unicode="&#xe917;" glyph-name="zen_navigation_close" d="M548.734 332.512l326.156 326.156c10.020 10.020 10.020 26.24 0 36.233-10.020 10.020-26.24 10.020-36.233 0l-326.156-326.156-326.156 326.156c-10.020 10.020-26.24 10.020-36.233 0-10.020-9.994-10.020-26.215 0-36.233l326.156-326.156-326.156-326.156c-10.020-9.994-10.020-26.24 0-36.233 10.020-10.020 26.24-10.020 36.233 0l326.156 326.156 326.156-326.156c10.020-10.020 26.24-10.020 36.233 0s10.020 26.24 0 36.233l-326.156 326.156z" />
<glyph unicode="&#xe918;" glyph-name="zen_navigation_close_small" d="M584.968 332.512l139.811 139.811c20.039 20.039 20.039 52.48 0 72.468-20.039 20.039-52.48 20.039-72.468 0l-139.811-139.811-139.811 139.811c-20.039 20.039-52.48 20.039-72.468 0-20.039-20.039-20.039-52.48 0-72.468l139.811-139.811-139.811-139.811c-20.039-19.988-20.039-52.429 0-72.468s52.48-20.039 72.468 0l139.811 139.811 139.811-139.811c20.039-20.039 52.48-20.039 72.468 0 20.039 20.039 20.039 52.48 0 72.468l-139.811 139.811z" />
<glyph unicode="&#xe919;" glyph-name="zen_navigation_dropdown_down" d="M512.5 195.88l-204.932 204.966h409.898l-204.966-204.966z" />
<glyph unicode="&#xe91a;" glyph-name="zen_navigation_dropdown_up" d="M512.5 400.812l204.966-204.966h-409.932l204.966 204.966z" />
<glyph unicode="&#xe91b;" glyph-name="zen_navigation_link" d="M228.242 597.629c56.708 56.708 148.983 56.708 205.692 0l102.858-102.884c8.739-8.739 8.739-22.908 0-31.647s-22.908-8.739-31.647 0l-102.833 102.884c-18.911 18.911-44.203 29.341-71.187 29.341-27.008 0-52.275-10.429-71.212-29.367-18.911-18.936-29.341-44.229-29.341-71.238s10.429-52.301 29.341-71.238l134.48-134.557c39.283-39.257 103.141-39.257 142.424 0 8.739 8.739 22.908 8.739 31.647 0s8.739-22.908 0-31.647c-28.367-28.367-65.6-42.538-102.858-42.538s-74.492 14.171-102.833 42.538l-134.505 134.557c-27.393 27.393-42.486 63.934-42.486 102.884 0 38.976 15.093 75.517 42.46 102.91zM497.228 186.065l87.023-87.074c18.911-18.936 44.203-29.367 71.212-29.367 26.983 0 52.275 10.429 71.212 29.367 39.257 39.283 39.257 103.192 0 142.475l-126.588 126.639c-18.911 18.911-44.203 29.341-71.212 29.341-26.983 0-52.275-10.429-71.187-29.341-8.739-8.739-22.908-8.739-31.647 0s-8.739 22.934 0 31.673c56.682 56.708 148.958 56.708 205.692 0l126.588-126.665c27.368-27.368 42.435-63.934 42.435-102.884s-15.093-75.492-42.46-102.884c-27.368-27.393-63.883-42.486-102.833-42.486s-75.466 15.093-102.858 42.486l-87.023 87.074c-8.739 8.739-8.739 22.908 0 31.647 8.764 8.739 22.908 8.739 31.647 0z" />
<glyph unicode="&#xe91c;" glyph-name="zen_navigation_show" d="M812.287 68.857l-147.754 147.754c36.618 44.665 58.707 101.859 58.707 164.179 0 142.988-116.030 259.018-259.018 259.018-143.116 0-259.018-116.030-259.018-259.018s115.902-259.018 259.018-259.018c62.346 0 119.413 21.935 164.051 58.579l147.754-147.626c10.020-10.045 26.215-10.045 36.259 0 10.020 9.917 10.020 26.215 0 36.131zM464.223 173.33c-114.518 0-207.589 93.070-207.589 207.461s93.070 207.589 207.589 207.589c114.39 0 207.589-93.198 207.589-207.589s-93.198-207.461-207.589-207.461z" />
<glyph unicode="&#xe91d;" glyph-name="zen_service_ecommerce" d="M820.675 119.329h-483.399l67.607 90.73 2.408-0.906c6.774-2.553 13.872-3.844 21.090-3.844h405.141c25.992 0 47.133 21.295 47.133 47.466v323.089c0 4.801-3.87 8.703-8.618 8.703h-654.608l-0.948 1.862-24.941 48.825c-12.53 24.532-37.344 39.77-64.746 39.77h-50.695c-4.75 0-8.618-3.904-8.618-8.703s3.87-8.695 8.618-8.695h50.695c20.918 0 39.856-11.625 49.422-30.349l198.833-389.193c3.246-6.355 7.542-12.035 12.761-16.878l2.246-2.084-1.837-2.46-72.63-97.477-1.503-0.145c-30.818-3.049-54.052-28.888-54.052-60.1 0-33.296 26.897-60.39 59.972-60.39s59.972 27.094 59.972 60.39c0 13.726-4.493 26.684-12.992 37.464l-4.356 5.526h415.416l-4.356-5.526c-8.499-10.78-12.992-23.737-12.992-37.464 0-33.296 26.897-60.39 59.972-60.39 33.065 0 59.972 27.094 59.972 60.39 0.009 33.296-26.897 60.39-59.963 60.39zM228.857 562.19l-2.536 4.971h637.098v-314.376c0-16.579-13.41-30.066-29.896-30.066h-405.149c-16.084 0-30.648 8.943-38.010 23.336l-161.506 316.136zM362.748 58.939c0-23.703-19.168-42.99-42.734-42.99-23.558 0-42.734 19.287-42.734 42.99 0 23.694 19.159 42.982 42.717 42.999 23.584-0.009 42.751-19.296 42.751-42.999zM820.675 15.941c-23.558 0-42.734 19.287-42.734 42.99 0 23.712 19.168 42.999 42.734 42.999s42.734-19.287 42.734-42.999c0-23.703-19.168-42.99-42.734-42.99zM320.535 67.635c-2.272 0-4.484-0.923-6.073-2.536-1.623-1.623-2.545-3.861-2.545-6.159s0.923-4.535 2.528-6.141c1.606-1.632 3.818-2.553 6.090-2.553s4.484 0.923 6.073 2.536c1.623 1.623 2.545 3.861 2.545 6.159s-0.923 4.535-2.528 6.15c-1.606 1.623-3.818 2.545-6.090 2.545zM821.205 67.635c-2.272 0-4.484-0.923-6.073-2.536-1.623-1.623-2.545-3.87-2.545-6.167s0.923-4.535 2.528-6.141c1.606-1.632 3.818-2.553 6.090-2.553s4.484 0.923 6.073 2.536c1.623 1.623 2.545 3.861 2.545 6.159s-0.923 4.535-2.528 6.15c-1.606 1.632-3.827 2.553-6.090 2.553zM757.014 507.019c-4.75 0-8.618-3.904-8.618-8.703v-206.768c0-4.801 3.87-8.703 8.618-8.703s8.618 3.904 8.618 8.703v206.777c0 4.792-3.861 8.695-8.618 8.695zM679.994 507.019c-4.75 0-8.618-3.904-8.618-8.703v-206.768c0-4.801 3.87-8.703 8.618-8.703s8.618 3.904 8.618 8.703v206.777c0 4.792-3.87 8.695-8.618 8.695zM602.966 507.019c-4.75 0-8.618-3.904-8.618-8.703v-206.768c0-4.801 3.87-8.703 8.618-8.703s8.618 3.904 8.618 8.703v206.777c0 4.792-3.87 8.695-8.618 8.695zM525.937 507.019c-4.75 0-8.618-3.904-8.618-8.703v-206.768c0-4.801 3.87-8.703 8.618-8.703s8.618 3.904 8.618 8.703v206.777c0 4.792-3.861 8.695-8.618 8.695zM448.916 507.019c-4.75 0-8.618-3.904-8.618-8.703v-206.768c0-4.801 3.87-8.703 8.618-8.703s8.618 3.904 8.618 8.703v206.777c0 4.792-3.87 8.695-8.618 8.695z" />
<glyph unicode="&#xe91e;" glyph-name="zen_service_mobile" d="M651.038 665.398h-277.075c-30.255 0-54.864-24.685-54.864-55.026v-555.722c0-30.34 24.617-55.026 54.864-55.026h277.075c30.255 0 54.864 24.685 54.864 55.026v555.73c0.009 30.34-24.609 55.017-54.864 55.017zM688.527 90.108v-35.457c0-20.73-16.818-37.592-37.49-37.592h-277.075c-20.671 0-37.49 16.861-37.49 37.592v37.592h352.062v-2.135zM688.527 553.212v-443.526h-352.054v445.662h352.062v-2.135zM688.527 574.916v-2.135h-352.054v37.592c0 20.73 16.818 37.592 37.49 37.592h277.075c20.671 0 37.49-16.861 37.49-37.592v-35.457zM547.137 619.094h-69.265c-4.792 0-8.686-3.912-8.686-8.722s3.895-8.722 8.686-8.722h69.265c4.792 0 8.686 3.912 8.686 8.722s-3.895 8.722-8.686 8.722zM512.5 67.464c-7.047 0-12.778-5.749-12.778-12.813s5.732-12.813 12.778-12.813c7.047 0 12.778 5.749 12.778 12.813s-5.732 12.813-12.778 12.813zM593.758 439.172h-91.319c-4.724 0-8.567-3.614-8.567-8.046s3.844-8.046 8.567-8.046h91.319c4.724 0 8.567 3.614 8.567 8.046s-3.844 8.046-8.567 8.046zM593.758 336.8h-91.319c-4.724 0-8.567-3.673-8.567-8.191s3.844-8.2 8.567-8.2h91.319c4.724 0 8.567 3.673 8.567 8.2 0 4.51-3.844 8.191-8.567 8.191zM593.758 223.879h-91.319c-4.724 0-8.567-3.605-8.567-8.046s3.844-8.046 8.567-8.046h91.319c4.724 0 8.567 3.614 8.567 8.046 0 4.441-3.844 8.046-8.567 8.046zM431.354 228.646c-7.047 0-12.778-5.749-12.778-12.813s5.732-12.813 12.778-12.813c7.047 0 12.778 5.749 12.778 12.813s-5.732 12.813-12.778 12.813zM431.354 341.413c-7.047 0-12.778-5.749-12.778-12.813s5.732-12.813 12.778-12.813c7.047 0 12.778 5.749 12.778 12.813s-5.732 12.813-12.778 12.813zM431.354 443.93c-7.047 0-12.778-5.749-12.778-12.813s5.732-12.813 12.778-12.813c7.047 0 12.778 5.749 12.778 12.813s-5.732 12.813-12.778 12.813z" />
<glyph unicode="&#xe91f;" glyph-name="zen_service_portals" d="M844.216 459.929c0 42.896-34.799 77.798-77.576 77.798h-130.354v49.627c0 30.126-24.438 54.632-54.47 54.632h-138.631c-30.032 0-54.47-24.506-54.47-54.632v-49.627h-130.354c-42.777 0-77.576-34.901-77.576-77.798v-185.337c0-17.195 8.26-33.603 22.089-43.896l1.076-0.803-0.043-1.341-0.017-127.707c0-42.896 34.799-77.798 77.576-77.798h462.070c42.777 0 77.576 34.901 77.576 77.798v128.698l1.016 1.153c13.829 10.293 22.089 26.693 22.089 43.896v185.337zM405.251 540.288v47.065c0 20.969 17.015 38.036 37.934 38.036h138.622c20.918 0 37.942-17.067 37.942-38.036v-49.627h-29.674v49.627c0 4.578-3.707 8.294-8.268 8.294h-138.622c-4.561 0-8.268-3.725-8.268-8.294v-49.627h-29.674v2.563zM573.539 579.059v-41.324h-122.086v41.324h122.086zM804.575 218.746v-117.901c0-33.748-27.385-61.201-61.048-61.201h-462.062c-33.663 0-61.039 27.453-61.039 61.201v121.087l3.109-0.684c3.887-0.854 7.833-1.29 11.719-1.29h61.039v-14.872c0-17.348 14.077-31.468 31.374-31.468h23.106c17.297 0 31.374 14.12 31.374 31.468v14.872h260.709v-14.872c0-17.348 14.077-31.468 31.374-31.468h23.106c17.297 0 31.374 14.12 31.374 31.468v14.872h61.048c3.895 0 7.833 0.435 11.719 1.29l3.109 0.684v-3.186zM315.401 219.958h50.216v-14.872c0-8.2-6.653-14.872-14.836-14.872h-23.106c-8.183 0-14.836 6.672-14.836 14.872v14.872h2.563zM312.839 236.556v14.872c0 8.2 6.653 14.872 14.836 14.872h23.106c8.183 0 14.836-6.672 14.836-14.872v-14.872h-52.779zM661.954 219.958h50.216v-14.872c0-8.2-6.653-14.872-14.836-14.872h-23.106c-8.183 0-14.836 6.672-14.836 14.872v14.872h2.563zM659.392 236.556v14.872c0 8.2 6.653 14.872 14.836 14.872h23.106c8.183 0 14.836-6.672 14.836-14.872v-14.872h-52.779zM827.679 274.591c0-20.978-17.015-38.036-37.942-38.036h-61.048v14.872c0 17.348-14.077 31.468-31.374 31.468h-23.106c-17.297 0-31.374-14.12-31.374-31.468v-14.872h-260.692v14.872c0 17.348-14.077 31.468-31.374 31.468h-23.106c-17.297 0-31.374-14.12-31.374-31.468v-14.872h-61.039c-20.918 0-37.942 17.067-37.942 38.036v185.337c0 33.748 27.385 61.21 61.048 61.21h508.272c33.663 0 61.039-27.462 61.039-61.21v-185.337z" />
<glyph unicode="&#xe920;" glyph-name="zen_service_promo" d="M860.488 388.631c0 24.668-15.435 46.834-38.404 55.162l-1.46 0.53v188.737l-351.643-124.495-0.906 0.564c-3.297 2.050-6.996 3.135-10.711 3.135h-214.593c-11.369 0-20.611-9.379-20.611-20.91v-45.622l-1.777-0.367c-32.373-6.672-55.872-35.858-55.872-69.384s23.498-62.704 55.88-69.384l1.768-0.367v-32.219c0-11.531 9.251-20.91 20.611-20.91h61.381v-165.64c0-30.605 24.574-55.512 54.787-55.512h6.167c30.212 0 54.787 24.899 54.787 55.512v165.657h37.473c4.399 0 8.644 1.452 12.274 4.211l0.957 0.718 1.127-0.401 348.902-123.522v198.816l1.46 0.53c22.968 8.328 38.404 30.494 38.404 55.162zM222.16 424.89v-100.8l-2.87 0.871c-22.098 6.723-37.532 27.701-37.532 51.028 0 23.319 15.435 44.305 37.532 51.028l2.87 0.871v-2.998zM402.646 249.086v-161.609c0-20.944-16.835-37.993-37.541-37.993h-6.167c-20.696 0-37.541 17.041-37.541 37.993v163.829h81.24v-2.221zM461.045 492.514v-221.879h-218.206c-1.896 0-3.442 1.52-3.442 3.382v31.357l0.29 0.026v141.143l-0.29 2.084v42.726c0 1.862 1.547 3.382 3.442 3.382h218.206v-2.221zM803.379 605.257v-158.132h-0.034v-119.037l0.034-0.162v-169.134l-325.404 115.193v218.94l1.452 0.786 323.943 114.689v-3.143zM824.024 353.704l-3.408-2.144v74.141l3.408-2.144c12.035-7.576 19.219-20.637 19.219-34.927s-7.184-27.351-19.219-34.927z" />
<glyph unicode="&#xe921;" glyph-name="zen_social_behance" d="M740.631 455.957h-141.791v34.44h141.826l-0.034-34.44zM504.403 314.712c9.157-13.872 13.735-30.682 13.735-50.464 0-20.432-5.159-38.779-15.648-54.94-6.663-10.694-14.965-19.748-24.907-27.060-11.207-8.439-24.498-14.213-39.736-17.288-15.307-3.109-31.877-4.647-49.713-4.647h-158.602v344.4h170.082c42.879-0.684 73.254-12.813 91.191-36.695 10.763-14.623 16.093-32.185 16.093-52.582 0-21.047-5.398-37.891-16.263-50.704-6.048-7.175-14.965-13.7-26.821-19.612 17.903-6.389 31.502-16.502 40.59-30.409zM310.746 368.934h74.518c15.307 0 27.709 2.836 37.241 8.541s14.282 15.785 14.282 30.306c0 16.025-6.287 26.65-18.928 31.775-10.865 3.553-24.737 5.398-41.581 5.398h-65.532v-76.021zM443.928 269.201c0 17.869-7.482 30.272-22.379 36.9-8.337 3.759-20.125 5.706-35.225 5.843h-75.577v-91.772h74.415c15.307 0 27.128 1.948 35.67 6.048 15.375 7.448 23.097 21.764 23.097 42.982zM793.249 325.2c1.709-11.275 2.494-27.607 2.187-48.995h-183.646c1.025-24.805 9.772-42.127 26.343-52.070 10.011-6.218 22.14-9.259 36.354-9.259 15 0 27.197 3.69 36.593 11.309 5.125 4.032 9.635 9.738 13.564 16.913h67.309c-1.777-14.623-9.875-29.486-24.429-44.588-22.55-23.985-54.223-36.012-94.881-36.012-33.586 0-63.175 10.148-88.868 30.375-25.591 20.295-38.472 53.198-38.472 98.81 0 42.811 11.548 75.577 34.713 98.366 23.268 22.857 53.266 34.2 90.234 34.2 21.935 0 41.684-3.827 59.313-11.548 17.562-7.722 32.116-19.85 43.529-36.525 10.387-14.623 17.050-31.604 20.159-50.977zM726.965 318.777c-1.23 17.152-7.107 30.135-17.63 38.984-10.455 8.884-23.507 13.359-39.087 13.359-16.947 0-30.032-4.784-39.36-14.145-9.362-9.362-15.204-22.072-17.596-38.198h113.673z" />
<glyph unicode="&#xe922;" glyph-name="zen_social_facebook" d="M561.325 442.768v55.111c0 8.268 0.375 14.691 1.127 19.202 0.786 4.51 2.494 8.986 5.193 13.393s7.038 7.448 13.086 9.123c6.013 1.675 14.043 2.528 24.053 2.528h54.564v110.222h-87.262c-50.498 0-86.75-12.095-108.787-36.285s-33.039-59.825-33.039-106.941v-66.386h-65.361v-110.222h65.361v-319.834h131.098v319.834h87.262l11.548 110.222h-98.845z" />
<glyph unicode="&#xe923;" glyph-name="zen_social_linkedin" d="M770.801 276.855v-190.343h-110.734v177.632c0 44.622-16.025 75.064-56.102 75.064-30.613 0-48.79-20.534-56.819-40.385-2.904-7.107-3.69-16.981-3.69-26.889v-185.423h-110.768c0 0 1.503 300.804 0 331.998h110.734v-47.048c-0.239-0.341-0.513-0.718-0.718-1.093h0.718v1.093c14.725 22.584 41 54.838 99.8 54.838 72.946 0 127.579-47.457 127.579-149.445zM316.862 578.512c-37.891 0-62.662-24.771-62.662-57.332 0-31.843 24.053-57.4 61.193-57.4h0.752c38.609 0 62.662 25.523 62.662 57.4-0.752 32.561-24.019 57.332-61.944 57.332zM260.795 86.512h110.734v331.998h-110.734v-331.998z" />
</font>
</defs>
</svg>
