<?xml version="1.0" standalone="no"?>
<!DOCTYPE svg PUBLIC "-//W3C//DTD SVG 1.1//EN" "http://www.w3.org/Graphics/SVG/1.1/DTD/svg11.dtd" >
<svg xmlns="http://www.w3.org/2000/svg">
<metadata>Generated by IcoMoon</metadata>
<defs>
<font id="icomoon" horiz-adv-x="1024">
<font-face units-per-em="1024" ascent="819.8005865102639" descent="-204.19941348973606" />
<missing-glyph horiz-adv-x="1024" />
<glyph unicode="&#x20;" d="" />
<glyph unicode="&#xe900;" glyph-name="start" d="M1025.949 430.919l-396.842 127.224 13.639 42.26-19.226 6.163-110.547-342.383-110.554 342.383-19.2-6.163 13.639-42.26-396.862-127.224 89.583-277.437 396.876 127.244 15.921-49.342-50.858-141.514 19.2-6.176 42.26 114.872 42.26-114.872 19.2 6.176-50.865 141.514 15.934 49.342 396.862-127.251 25.228 78.137h0.020l39.129 121.175 25.202 78.13zM50.589 339.819l377.669 121.075 26.77-82.905-377.649-121.108-26.79 82.939zM25.369 417.957l377.669 121.075 19.052-59.006-377.663-121.088-19.059 59.019zM102.613 178.757l-19.059 59.013 377.656 121.075 19.052-59.013-377.649-121.075zM1000.594 417.957l-19.059-59.019-377.656 121.081 19.046 59.006 377.669-121.068zM948.583 256.88l-377.649 121.081 26.77 82.919 377.656-121.068-26.776-82.932zM923.356 178.757l-377.669 121.095 19.052 58.993 377.676-121.068-19.059-59.019z" />
<glyph unicode="&#xe901;" glyph-name="zen_contact_mail" d="M230.338 617.748c-4.993 1.847-10.567 0.719-14.364-2.907-3.763-3.626-5.028-9.097-3.215-13.954l179.756-480.101c4.548-12.107 14.637-21.512 27.327-25.275s26.505-1.504 37.175 6.122l168.025 119.324-386.017 371.071 436.564-335.161 122.915 87.278c11.218 7.969 17.067 21.273 15.253 34.747-1.847 13.44-11.047 24.795-24.008 29.652l-559.411 209.202zM559.479 126.293c-1.163-1.642 42.237-29.379 75.446-50.274 8.242-5.198 18.639-6.019 27.668-2.189s15.492 11.764 17.271 21.205l23.837 127.292 1.026 5.574-145.248-101.608z" />
<glyph unicode="&#xe902;" glyph-name="zen_contact_phone" d="M712.046 237.752c-33.276 28.25-66.997 45.383-99.829 17.135l-19.596-17.101c-14.364-12.38-41.006-70.248-144.154 47.744-103.148 117.853-41.759 136.185-27.395 148.497l19.699 17.067c32.661 28.318 20.349 63.919-3.215 100.616l-14.227 22.231c-23.666 36.595-49.419 60.636-82.182 32.354l-17.715-15.356c-14.466-10.465-54.96-44.563-64.775-109.338-11.8-77.703 25.445-166.692 110.842-264.333 85.26-97.709 168.744-146.786 247.814-145.897 65.766 0.685 105.405 35.739 117.819 48.495l17.749 15.39c32.661 28.216 12.38 57.012-20.895 85.329l-19.938 17.169z" />
<glyph unicode="&#xe903;" glyph-name="zen_contact_pin" d="M504.896 618.501c-113.442-3.797-207.698-88.647-218.606-196.89-2.223-21.648-0.924-42.648 3.044-62.723v0c0 0 0.341-2.359 1.504-6.841 3.522-15.049 8.79-29.617 15.356-43.297 22.845-51.848 75.651-138.544 194.12-232.902 7.25-5.849 17.921-5.849 25.275 0 118.504 94.255 171.308 180.988 194.257 233.040 6.67 13.679 11.834 28.146 15.356 43.297 1.060 4.377 1.54 6.841 1.54 6.841v0c2.703 13.475 4.104 27.258 4.104 41.381-0.034 123.188-106.465 222.471-235.946 218.094zM512.967 291.786c-61.116 0-110.637 47.469-110.637 106.020s49.521 106.020 110.637 106.020 110.637-47.469 110.637-106.020c0-58.55-49.521-106.020-110.637-106.020z" />
<glyph unicode="&#xe904;" glyph-name="zen_contact_skype" d="M763.757 305.434c2.052 12.928 3.112 26.129 3.112 39.639 0 140.221-113.681 253.868-253.902 253.868-13.44 0-26.71-1.094-39.604-3.112-23.359 14.432-50.959 22.811-80.542 22.811-84.748 0-153.422-68.674-153.422-153.422 0-29.583 8.379-57.149 22.845-80.576-2.018-12.928-3.112-26.094-3.112-39.604 0-140.221 113.647-253.834 253.834-253.834 13.475 0 26.71 1.026 39.639 3.078 23.427-14.432 50.993-22.845 80.576-22.845 84.748 0 153.422 68.708 153.422 153.422 0 29.583-8.379 57.149-22.845 80.576zM633.523 229.578c-10.738-15.458-26.505-27.531-47.128-36.251-20.657-8.686-45.076-13.031-73.257-13.031-33.79 0-61.765 5.917-83.859 17.852-15.663 8.549-28.387 20.008-38.167 34.337-9.816 14.33-14.774 28.318-14.774 41.998 0 8.071 3.078 15.083 9.063 20.793 6.054 5.746 13.852 8.652 23.016 8.652 7.523 0 13.989-2.257 19.255-6.738 5.232-4.514 9.609-11.013 13.201-19.631 4.309-9.987 8.961-18.331 13.92-24.999 4.925-6.566 11.902-12.073 20.895-16.382 8.893-4.309 20.759-6.463 35.569-6.463 20.281 0 36.697 4.377 49.214 13.031 12.619 8.722 18.673 19.357 18.673 32.216 0 10.226-3.249 18.366-9.953 24.726-6.772 6.429-15.492 11.32-26.335 14.705-10.876 3.453-25.479 7.114-43.777 10.979-24.556 5.369-45.11 11.593-61.731 18.775-16.655 7.182-29.925 17.032-39.741 29.447-9.85 12.551-14.774 28.112-14.774 46.58 0 17.613 5.198 33.346 15.561 47.059 10.397 13.748 25.411 24.249 44.973 31.601 19.528 7.319 42.476 10.979 68.81 10.979 21.034 0 39.261-2.427 54.651-7.284 15.356-4.857 28.181-11.32 38.407-19.392 10.192-8.071 17.681-16.553 22.401-25.479 4.72-8.961 7.114-17.681 7.114-26.232 0-7.935-3.078-15.117-9.063-21.444s-13.645-9.541-22.606-9.507c-8.071 0-14.398 1.847-18.775 5.815-4.275 3.831-8.756 9.885-13.611 18.331-6.156 11.8-13.475 20.999-22.025 27.565-8.31 6.463-22.060 9.816-41.177 9.782-17.681 0-31.84-3.626-42.511-10.67-10.738-7.182-15.868-15.527-15.904-25.275 0.034-6.122 1.779-11.286 5.301-15.663 3.592-4.445 8.583-8.31 15.015-11.559 6.429-3.317 12.963-5.849 19.528-7.696 6.634-1.881 17.681-4.618 33.003-8.208 19.221-4.138 36.663-8.756 52.326-13.816 15.629-5.062 29.001-11.184 40.014-18.468 11.115-7.25 19.801-16.518 25.991-27.702 6.258-11.218 9.371-24.897 9.371-41.006 0.068-19.426-5.335-36.868-16.109-52.326z" />
<glyph unicode="&#xe905;" glyph-name="zen_icon_action" d="M473.261-65.33c204.756 0 370.763 165.186 370.763 368.916 0 62.688-15.663 121.684-43.365 173.36-3.044-0.444-6.156-0.616-9.166-0.616-1.745 0-3.556 0.102-5.369 0.171l-47.162 3.626-33.926-33.756c25.889-41.52 40.835-90.425 40.835-142.785 0-149.762-122.026-271.207-272.541-271.207-150.481 0-272.609 121.444-272.609 271.207s122.026 271.207 272.506 271.207c52.701 0 101.847-14.912 143.503-40.665l30.712 30.575-4.172 53.832c-0.341 4.309-0.273 8.618 0.171 12.826-50.959 26.266-108.858 41.177-170.316 41.177-204.654 0-370.661-165.186-370.661-368.916 0.068-203.764 166.041-368.95 370.798-368.95zM473.261 398.936c2.427 0 4.857-0.102 7.284-0.273l69.939 69.597c-23.461 10.945-49.589 17.032-77.189 17.032-100.821 0-182.526-81.293-182.526-181.602 0-100.343 81.705-181.704 182.526-181.704s182.526 81.293 182.526 181.636c0 27.463-6.156 53.489-17.135 76.813l-1.47-1.47-68.503-68.127c0.171-2.393 0.273-4.823 0.273-7.25 0-52.633-42.853-95.316-95.794-95.316-52.977 0-95.725 42.717-95.725 95.316 0 52.633 42.921 95.35 95.794 95.35zM855.344 632.591l21.99 21.887c10.055 9.987 10.055 26.094 0 36.081l-15.219 15.253c-5.028 4.993-11.593 7.489-18.093 7.489s-13.167-2.496-18.093-7.489l-25.172-25.068-5.198 66.758c-0.341 4.891-4.411 7.935-8.652 7.935-2.154 0-4.343-0.787-6.054-2.496l-99.078-98.598c-8.927-8.859-13.509-21.205-12.551-33.756l0.273-3.865 4.755-61.765-191.896-190.938c-3.626-3.626-5.883-8.447-6.224-13.543l-1.745-21.614c-1.026-12.585 8.995-23.257 21.546-23.257 0.341 0 0.685 0 1.128 0l22.947 1.128c5.369 0.239 10.465 2.496 14.193 6.293l194.735 193.777 59.098-4.479c1.128-0.102 2.257-0.102 3.283-0.102 11.423 0 22.401 4.479 30.643 12.585l99.010 98.53c5.198 5.164 1.915 14.125-5.437 14.637l-60.193 4.618z" />
<glyph unicode="&#xe906;" glyph-name="zen_icon_android" d="M206.294 487.823h-2.189c-27.634 0-50.172-22.060-50.172-48.975v-213.067c0-26.983 22.538-49.009 50.172-49.009h2.189c27.634 0 50.172 22.060 50.172 49.009v213.067c0 26.915-22.572 48.975-50.172 48.975zM280.51 143.599c0-24.761 20.759-44.905 46.136-44.905h49.282v-115.083c0-27.051 22.606-49.009 50.206-49.009h2.154c27.668 0 50.274 22.025 50.274 49.009v115.083h68.879v-115.083c0-27.051 22.674-49.009 50.274-49.009h2.12c27.668 0 50.24 22.025 50.24 49.009v115.083h49.316c25.343 0 46.102 20.179 46.102 44.905v336.427h-464.985v-336.427zM628.802 684.028l39.159 58.927c2.53 3.729 1.401 8.79-2.462 11.218-3.831 2.462-9.029 1.436-11.525-2.393l-40.596-60.979c-30.439 12.175-64.467 19.016-100.377 19.016-35.944 0-69.905-6.841-100.411-19.016l-40.528 60.979c-2.462 3.831-7.73 4.857-11.559 2.393-3.865-2.427-4.959-7.489-2.462-11.218l39.193-58.927c-70.623-33.756-118.263-97.368-118.263-170.384 0-4.479 0.273-8.893 0.651-13.27h466.763c0.375 4.377 0.616 8.79 0.616 13.27 0.068 73.017-47.606 136.629-118.195 170.384zM404.792 578.52c-12.38 0-22.47 9.748-22.47 21.887 0 12.107 10.089 21.853 22.47 21.853 12.449 0 22.47-9.712 22.47-21.853s-10.055-21.887-22.47-21.887zM621.211 578.52c-12.38 0-22.47 9.748-22.47 21.887 0 12.107 10.089 21.853 22.47 21.853 12.414 0 22.435-9.712 22.435-21.853s-10.021-21.887-22.435-21.887zM821.863 487.823h-2.12c-27.634 0-50.274-22.060-50.274-48.975v-213.067c0-26.983 22.64-49.009 50.274-49.009h2.12c27.668 0 50.206 22.060 50.206 49.009v213.067c0 26.915-22.572 48.975-50.206 48.975z" />
<glyph unicode="&#xe907;" glyph-name="zen_icon_apple" d="M731.403 296.814c-21.921 110.262 82.799 175.002 82.799 175.002s-40.835 59.030-109.372 74.213c-68.537 15.219-102.839-3.797-137.074-18.058-34.268-14.262-51.368-14.262-51.368-14.262-49.453 0-85.604 52.36-179.824 28.523-64.911-16.416-133.243-91.314-145.59-180.748-12.346-89.467 14.296-203.628 65.664-292.103 51.368-88.543 103.694-121.855 140.836-122.779s74.213 26.608 118.914 33.311c44.7 6.634 72.266-16.211 116.075-28.557 43.743-12.346 59.064-0.855 109.407 41.964 50.445 42.819 96.103 165.598 96.103 165.598s-84.646 27.463-106.567 137.896zM634.343 617.406c48.563 49.487 32.079 126.096 32.079 126.096s-68.196-11.971-113.886-59.508c-45.624-47.571-38.064-122.71-38.064-122.71s71.308 6.67 119.871 56.123z" />
<glyph unicode="&#xe908;" glyph-name="zen_icon_blog" d="M593.167 222.874c53.763 22.197 96.171 52.394 127.292 90.595 31.087 38.235 46.65 79.823 46.65 124.831 0 45.042-15.561 86.63-46.65 124.831-31.087 38.235-73.497 68.435-127.258 90.595s-112.28 33.311-175.48 33.311c-63.168 0-121.65-11.115-175.412-33.276-53.727-22.197-96.171-52.394-127.258-90.595-31.087-38.235-46.65-79.823-46.65-124.865 0-38.544 11.764-74.83 35.259-108.824s55.745-62.654 96.751-85.979c-3.317-7.798-6.704-14.912-10.158-21.375-3.488-6.463-7.626-12.687-12.414-18.707-4.789-5.985-8.515-10.704-11.149-14.091s-6.943-8.208-12.894-14.33c-5.951-6.156-9.782-10.192-11.423-12.141 0 0.341-0.651-0.41-1.984-2.189s-2.086-2.566-2.223-2.427c-0.171 0.171-0.821-0.651-1.984-2.427-1.197-1.745-1.779-2.634-1.779-2.634l-1.231-2.427c-0.478-0.992-0.821-1.95-0.992-2.907s-0.239-2.018-0.239-3.146c0-1.128 0.171-2.154 0.514-3.146 0.651-4.206 2.566-7.592 5.712-10.192s6.531-3.899 10.158-3.899h1.47c16.518 2.257 30.746 4.857 42.682 7.798 50.959 12.963 96.924 33.687 137.964 62.176 29.754-5.198 58.893-7.798 87.347-7.798 63.134-0.034 121.616 11.081 175.378 33.242zM922.377 204.92c23.496 33.824 35.225 70.179 35.225 109.064 0 39.843-12.414 77.087-37.209 111.766-24.829 34.645-58.55 63.475-101.233 86.457 7.592-24.283 11.388-48.907 11.388-73.838 0-43.399-11.081-84.508-33.242-123.394-22.162-38.851-53.934-73.187-95.281-102.976-38.372-27.19-82.046-48.085-131.021-62.654-48.941-14.569-100.070-21.853-153.32-21.853-9.919 0-24.487 0.651-43.674 1.95 66.485-42.751 144.564-64.126 234.202-64.126 28.455 0 57.558 2.6 87.347 7.764 41.006-28.523 87.005-49.214 137.93-62.176 11.902-2.941 26.129-5.505 42.682-7.764 3.967-0.341 7.626 0.787 10.911 3.385 3.317 2.6 5.471 6.156 6.463 10.704-0.171 1.95 0 3.010 0.478 3.146s0.41 1.197-0.239 3.146c-0.651 1.95-0.992 2.907-0.992 2.907l-1.231 2.427c-0.341 0.651-0.889 1.54-1.745 2.668-0.821 1.128-1.504 1.95-1.984 2.427s-1.231 1.299-2.223 2.427c-0.992 1.128-1.642 1.847-1.984 2.189-1.642 1.95-5.471 5.985-11.423 12.141s-10.26 10.945-12.894 14.33c-2.634 3.385-6.361 8.071-11.149 14.091-4.789 5.985-8.927 12.244-12.414 18.707s-6.875 13.577-10.158 21.375c41.040 23.257 73.292 51.848 96.786 85.706z" />
<glyph unicode="&#xe909;" glyph-name="zen_icon_cart" d="M672.477 514.806h68.947l-102.225 174.626c-8.242 14.159-26.471 18.982-40.699 10.601-14.227-8.208-19.050-26.369-10.67-40.528l84.646-144.7zM438.479 659.507c8.242 14.159 3.556 32.32-10.67 40.528-14.193 8.208-32.457 3.522-40.699-10.601l-102.225-174.797h68.947l84.646 144.871zM855.585 461.249h-685.336c-27.941 0-50.547-22.504-50.547-50.342v-55.815c0-27.804 22.606-50.342 50.547-50.342h15.834l48.77-263.238c6.156-31.019 34.543-55.643 64.126-55.643h146.65c12.928 0 29.72 0 46.821 0v0h30.985c17.101 0 33.926 0 46.821 0h146.65c29.549 0 57.97 24.59 64.126 55.643l49.077 263.375h25.684c27.941 0 50.547 22.504 50.547 50.342v55.779c-0.205 27.736-22.811 50.24-50.754 50.24zM398.739 198.181v-113.511c0-16.245-13.236-28.455-28.591-28.455-16.314 0-28.591 13.201-28.591 28.455v159.201c0 16.245 13.236 28.455 28.591 28.455 16.314 0 28.591-13.167 28.591-28.455v-45.692zM490.464 198.181v-113.511c0-16.245-13.236-28.455-28.591-28.455-16.314 0-28.591 13.201-28.591 28.455v159.201c0 16.245 13.236 28.455 28.591 28.455 15.322 0 28.591-13.167 28.591-28.455v-45.692zM582.667 132.244v-47.606c0-15.288-12.278-28.455-28.591-28.455-15.356 0-28.591 12.21-28.591 28.455v159.167c0 15.288 13.236 28.455 28.591 28.455s28.591-12.21 28.591-28.455v-111.561zM674.392 132.244v-47.606c0-15.288-12.278-28.455-28.591-28.455-15.322 0-28.591 12.21-28.591 28.455v159.167c0 15.288 12.278 28.455 28.591 28.455 15.356 0 28.591-12.21 28.591-28.455v-111.561z" />
<glyph unicode="&#xe90a;" glyph-name="zen_icon_catalogue" d="M253.936 567.338h47.469c17.476 0 23.496-11.388 23.496-25.411v-38.099c0-14.023-6.019-39.090-23.496-39.090h-47.469c-17.476 0-31.635 25.068-31.635 39.090v38.099c0 14.023 14.159 25.411 31.635 25.411zM459.17 567.338h301.473c23.803 0 43.058-11.388 43.058-25.411v-38.099c0-14.023-19.289-39.090-43.058-39.090h-301.473c-23.803 0-31.669 25.068-31.669 39.090v38.099c0 14.023 7.867 25.411 31.669 25.411zM253.936 396.337h47.469c17.476 0 23.496-18.229 23.496-32.25v-38.099c0-14.023-6.019-32.25-23.496-32.25h-47.469c-17.476 0-31.635 18.229-31.635 32.25v38.099c0 14.023 14.159 32.25 31.635 32.25zM459.17 396.337h301.473c23.803 0 43.058-18.229 43.058-32.25v-38.099c0-14.023-19.289-32.25-43.058-32.25h-301.473c-23.803 0-31.669 18.229-31.669 32.25v38.099c0 14.023 7.867 32.25 31.669 32.25zM253.936 225.336h47.469c17.476 0 23.496-25.068 23.496-39.090v-38.099c0-14.023-6.019-25.411-23.496-25.411h-47.469c-17.476 0-31.635 11.388-31.635 25.411v38.099c0 14.023 14.159 39.090 31.635 39.090zM459.17 225.336h301.473c23.803 0 43.058-25.068 43.058-39.090v-38.099c0-14.023-19.289-25.411-43.058-25.411h-301.473c-23.803 0-31.669 11.388-31.669 25.411v38.099c0 14.023 7.867 39.090 31.669 39.090z" />
<glyph unicode="&#xe90b;" glyph-name="zen_icon_check" d="M513.001 652.838c-170.009 0-307.801-137.792-307.801-307.801s137.792-307.801 307.801-307.801 307.801 137.792 307.801 307.801-137.792 307.801-307.801 307.801zM688.55 415.763l-189.264-189.264c-0.375-0.375-0.889-0.514-1.299-0.889-0.341-0.375-0.444-0.855-0.787-1.197-13.372-13.338-35.021-13.338-48.359 0l-112.86 112.86c-13.372 13.372-13.372 35.021 0 48.359 13.372 13.372 35.021 13.372 48.359 0l88.682-88.682 167.17 167.17c14.501 14.535 37.107 15.458 50.479 2.12 13.338-13.372 12.38-35.944-2.12-50.479z" />
<glyph unicode="&#xe90c;" glyph-name="zen_icon_filters" d="M854.729 552.016c-6.327 54.344-179.962 83.654-341.727 83.654-161.698 0-335.263-29.31-341.727-83.62-0.171-0.616-0.273-1.265-0.273-1.95v-70.316c0-2.393 1.265-4.686 3.385-5.951l248.464-151.336v-261.084c0-2.223 1.094-4.343 2.976-5.678 1.265-0.889 2.805-1.367 4.309-1.367 0.719 0 1.436 0.068 2.154 0.307l165.734 49.214c3.044 0.924 5.13 3.626 5.13 6.738v211.87l248.464 151.336c2.086 1.299 3.385 3.556 3.385 5.985v70.316c0 0.616-0.068 1.265-0.273 1.881zM510.265 601.675c182.73 0 278.321-28.216 278.321-43.365 0-1.847-2.941-5.505-10.021-9.336-29.001-9.166-55.541-15.834-81.122-20.52-12.278-2.223-24.931-4.104-37.311-5.917-45.178-4.993-97.026-7.592-149.898-7.592-182.73 0-278.321 28.25-278.321 43.365 0.034 15.151 95.623 43.365 278.355 43.365z" />
<glyph unicode="&#xe90d;" glyph-name="zen_icon_news" d="M827.198 704.309h-448.842c-24.795 0-44.871-20.11-44.871-44.905v-314.368h-134.68c-24.795 0-44.871-20.11-44.871-44.905v-179.618c0-74.318 60.397-134.748 134.645-134.748h448.842c74.248 0 134.645 60.432 134.645 134.748v538.891c0 24.795-20.076 44.905-44.871 44.905zM333.451 120.513c0-24.761-20.11-44.905-44.871-44.905s-44.871 20.145-44.871 44.905v134.714h89.742v-134.714zM557.872 581.325h89.776c24.795 0 44.871-15.322 44.871-34.199s-20.076-34.199-44.871-34.199h-89.776c-24.795 0-44.871 15.322-44.871 34.199s20.076 34.199 44.871 34.199zM737.422 243.462h-269.292c-24.829 0-44.905 15.322-44.905 34.199s20.076 34.199 44.905 34.199h269.292c24.795 0 44.871-15.322 44.871-34.199s-20.076-34.199-44.871-34.199zM737.422 378.211h-269.292c-24.829 0-44.905 15.322-44.905 34.199s20.076 34.199 44.905 34.199h269.292c24.795 0 44.871-15.322 44.871-34.199 0-18.912-20.076-34.199-44.871-34.199z" />
<glyph unicode="&#xe90e;" glyph-name="zen_icon_storytelling" d="M872.001 608.857c0 25.24-21.205 45.246-46.409 43.845-149.967-8.345-230.816-56.805-272.541-96.924-8.549-8.276-13.372-19.699-13.372-31.533v-464.882c0-18.161 20.759-28.489 35.225-17.51 46.65 35.637 125.514 72.093 255.509 78.524 23.325 1.163 41.588 20.52 41.588 43.845v444.635zM195.522 120.41c130.029-6.429 208.894-42.819 255.509-78.524 14.398-11.047 35.225-0.719 35.225 17.51v464.848c0 11.937-4.823 23.359-13.372 31.533-41.725 40.116-122.574 88.578-272.472 96.924-25.206 1.47-46.375-18.536-46.375-43.845v-444.67c0-23.291 18.263-42.682 41.485-43.777z" />
<glyph unicode="&#xe90f;" glyph-name="zen_icon_subscription" d="M383.965 126.942c0 49.077-40.082 89.023-89.296 89.023-49.248 0-89.33-39.946-89.33-89.023s40.082-89.023 89.33-89.023c49.214 0 89.296 39.946 89.296 89.023zM215.358 316.376c71.649 0 139.058-27.941 189.776-78.661 50.719-50.788 78.661-118.436 78.661-190.461 0-5.471 4.445-9.919 9.953-9.919h114.571c5.505 0 9.953 4.445 9.953 9.919 0 222.301-180.748 403.185-402.911 403.185-5.505 0-9.953-4.445-9.953-9.919v-114.194c0-5.505 4.445-9.953 9.953-9.953zM215.528 652.838c-5.505 0-9.987-4.445-9.987-9.919v-114.194c0-5.471 4.445-9.919 9.953-9.919 259.544 0 470.696-211.562 470.696-471.62 0-5.505 4.445-9.953 9.953-9.953h114.537c5.505 0 9.953 4.445 9.953 9.953 0.068 333.964-271.412 605.649-605.102 605.649z" />
<glyph unicode="&#xe910;" glyph-name="zen_icon_windows" d="M188.34 366.685l-0.239 211.254 259.921 35.294v-246.515h-259.681zM491.353 619.527l346.447 50.411v-303.252h-346.447v252.842zM837.902 323.388l-0.102-303.252-346.481 48.736v254.483h346.583zM448.022 74.411l-259.716 35.603v213.374h259.716v-248.977z" />
<glyph unicode="&#xe911;" glyph-name="zen_icon_wow" d="M598.878-8.079c3.522 0 6.566-1.333 9.2-3.967s3.933-5.746 3.933-9.268v-29.993c0-4.104-1.299-7.489-3.933-10.123s-5.712-3.967-9.2-3.967h-170.967c-9.336 0-14.023 4.72-14.023 14.125v29.993c0 3.522 1.299 6.6 3.933 9.268 2.634 2.634 5.985 3.967 10.089 3.967l170.967-0.034zM598.878 77.455c3.522 0 6.566-1.333 9.2-3.967s3.933-6.019 3.933-10.123v-29.959c0-3.522-1.299-6.634-3.933-9.268s-5.712-3.967-9.2-3.967h-170.967c-4.104 0-7.455 1.333-10.089 3.967s-3.933 5.712-3.933 9.268v29.959c0 9.405 4.686 14.125 14.023 14.125h170.967zM775.077 350.782c-8.174 1.163-15.185-0.137-21.034-3.967s-9.336-8.961-10.533-15.424c-1.163-6.463 0.444-12.653 4.823-18.502 4.377-5.883 10.67-9.405 18.843-10.567l72.778-11.457c8.174-1.163 15.185 0.137 21.034 3.967s9.336 9.268 10.533 16.314c1.163 6.463-0.582 12.483-5.267 18.093-4.686 5.574-10.808 8.961-18.4 10.123l-72.778 11.423zM767.21 517.405c-7.011-2.941-12.141-7.66-15.356-14.125s-3.351-12.928-0.444-19.392c2.907-6.463 7.73-10.738 14.466-12.79s13.577-1.608 20.588 1.333l67.511 30.848c7.592 2.941 12.86 7.626 15.765 14.125 2.907 6.463 2.907 12.928 0 19.392s-7.73 10.738-14.466 12.79c-6.738 2.052-13.577 1.333-20.588-2.223l-67.477-29.959zM653.222 630.265c-4.686-6.463-6.429-13.372-5.267-20.725s4.686-12.79 10.533-16.314c5.849-3.522 12.141-4.275 18.843-2.189 6.738 2.052 12.414 6.327 17.101 12.79l40.321 62.586c4.104 6.463 5.712 13.201 4.823 20.281-0.855 7.045-4.241 12.619-10.089 16.757-5.849 3.522-12.141 4.275-18.843 2.189-6.738-2.052-12.414-6.327-17.101-12.79l-40.321-62.586zM251.679 350.782c7.592 1.163 14.466-0.137 20.588-3.967s9.782-8.961 10.945-15.424c1.163-6.463-0.582-12.653-5.267-18.502-4.686-5.883-11.115-9.405-19.289-10.567l-72.778-11.457c-7.592-1.163-14.466 0.137-20.588 3.967s-9.782 9.268-10.945 16.314c-1.163 6.463 0.582 12.483 5.267 18.093 4.686 5.574 11.115 8.961 19.289 10.123l72.778 11.423zM259.578 517.405c7.011-2.941 12.141-7.66 15.356-14.125s3.351-12.928 0.444-19.392c-2.907-6.463-7.901-10.738-14.912-12.79s-14.023-1.608-21.034 1.333l-67.511 30.848c-7.011 2.941-12.141 7.626-15.356 14.125-3.215 6.463-3.351 12.928-0.444 19.392s7.73 10.738 14.466 12.79c6.704 2.052 13.886 1.333 21.478-2.223l67.511-29.959zM372.679 630.265c4.686-6.463 6.429-13.372 5.267-20.725s-4.686-12.79-10.533-16.314c-5.267-3.522-11.388-4.275-18.4-2.189-7.011 2.052-12.551 6.293-16.655 12.79l-40.321 62.586c-4.686 6.463-6.429 13.201-5.267 20.281 1.163 7.045 4.686 12.619 10.533 16.757 5.267 3.522 11.388 4.275 18.4 2.189s12.551-6.327 16.655-12.79l40.321-62.586zM538.378 653.179c0-8.242-2.325-14.98-7.011-20.281s-10.499-7.935-17.544-7.935c-6.429 0-11.971 2.634-16.655 7.935s-7.011 12.039-7.011 20.281v74.077c0 8.208 2.325 14.98 7.011 20.281s10.226 7.935 16.655 7.935c7.011 0 12.86-2.668 17.544-7.935 4.686-5.301 7.011-12.039 7.011-20.281v-74.077zM708.455 416.002c0-1.163-0.137-2.052-0.444-2.634s-0.444-1.47-0.444-2.668v-2.634c0-10.567-1.47-22.333-4.377-35.259-4.104-22.333-11.834-45.383-23.223-69.222-11.388-23.803-23.837-49.214-37.277-76.265-8.756-17.647-14.912-33.653-18.4-48.051s-6.293-26.915-8.31-37.484c-2.052-10.567-4.241-18.947-6.566-25.103s-6.738-9.85-13.167-11.013h-166.589c-6.429 1.163-10.808 4.857-13.133 11.013s-4.514 14.535-6.566 25.103c-2.052 10.567-4.823 23.086-8.31 37.484s-9.644 30.405-18.4 48.051c-13.44 27.051-25.855 52.463-37.243 76.265s-19.153 46.889-23.223 69.222c-1.163 5.883-2.052 11.764-2.634 17.647l-1.745 17.647v7.935c0 28.216 4.823 52.908 14.466 74.043 9.644 21.171 23.086 39.090 40.321 53.797s37.689 25.718 61.389 33.071c23.666 7.353 49.521 11.013 77.601 11.013h1.779c28.043 0 53.934-3.66 77.601-11.013s44.118-18.366 61.355-33.071c17.237-14.705 30.848-32.627 40.767-53.797 9.816-21.171 14.774-45.863 14.774-74.077z" />
<glyph unicode="&#xe912;" glyph-name="zen_load_brief" d="M652.371 425.322l-20.776 18.289-105.793-106.346v358.537h-25.599v-358.537l-5.476 5.514-100.318 100.83-20.776-18.289 139.37-140.101zM116.066 264.586v-270.314h793.87v285.486l-158.633 255.141h-187.080v-25.765h171.432l0.936-1.512 143.91-230.159h-220.244v-61.15c0-37.256-30.164-67.562-67.23-67.562h-160.056c-37.064 0-67.23 30.306-67.23 67.562v61.15h-220.257l144.845 231.671h171.444v25.765h-187.080l-158.633-255.141v-15.172zM141.665 23.243v228.465h198.481v-51.479c0-43.31 33.743-77.244 76.822-77.244h192.068c43.079 0 76.822 33.935 76.822 77.244v51.479h198.481v-231.671h-742.672v3.206z" />
<glyph unicode="&#xe913;" glyph-name="zen_load_presrntation" d="M642.945 120.79h235.801v563.417h-353.663v25.932h-24.33v-25.932h-353.484v-563.417h236.237l-3.436-5.488-76.090-121.723 20.405-13.645 88.031 140.703h201.61l88.031-140.549 20.405 13.645-79.516 127.058zM175.177 146.030h-3.592v514.618h684.485v-514.618h-680.894zM289.769 538.566v-272.121h193.44v272.121h-193.44zM458.88 511.404v-219.731h-144.936v223.322h144.936v-3.592zM565.29 464.091h180.924v-25.24h-180.924v25.24zM565.29 366.147h180.924v-25.24h-180.924v25.24z" />
<glyph unicode="&#xe914;" glyph-name="zen_navigation_arrow_left" d="M747.52 336.128c-0.453 0.81-0.876 1.479-1.331 2.124l-432.077 431.796c-4.447 3.826-10.277 6.156-16.652 6.156-14.138 0-25.6-11.462-25.6-25.6 0-6.374 2.33-12.204 6.184-16.685l413.156-413.918-413.184-413.696c-3.826-4.447-6.156-10.277-6.156-16.652 0-14.138 11.462-25.6 25.6-25.6 6.374 0 12.204 2.33 16.685 6.184l431.838 431.588c4.573 4.622 7.398 10.982 7.398 18.001 0 6.214-2.214 11.911-5.896 16.345z" />
<glyph unicode="&#xe915;" glyph-name="zen_navigation_arrow_right" d="M332.8 320l413.184 413.696c3.826 4.447 6.156 10.277 6.156 16.652 0 14.138-11.462 25.6-25.6 25.6-6.374 0-12.204-2.33-16.685-6.184l-431.838-431.588c-0.404-0.569-0.827-1.238-1.218-1.928-3.712-4.512-5.927-10.21-5.927-16.426 0-6.892 2.723-13.148 7.153-17.75l431.864-432.12c4.447-3.826 10.277-6.156 16.652-6.156 14.138 0 25.6 11.462 25.6 25.6 0 6.374-2.33 12.204-6.184 16.685z" />
<glyph unicode="&#xe916;" glyph-name="zen_navigation_chat" d="M513.001 635.78c172.728 0 313.265-122.428 313.265-272.917 0-51.505-16.646-101.728-48.145-145.206l-11.644-16.083 1.822-19.776c3.078-33.679 9.157-73.411 21.007-110.322-32.627 9.157-69.589 22.137-100.625 39.86l-22.137 12.645-23.675-9.439c-40.886-16.314-84.569-24.573-129.841-24.573-172.728 0-313.265 122.428-313.265 272.917-0.026 150.464 140.511 272.89 313.239 272.89zM513.001 678.488c-195.761 0-355.023-141.69-355.023-315.907 0-174.19 159.261-315.907 355.023-315.907 50.453 0 99.164 9.234 144.897 27.497 80.542-45.965 191.862-61.79 196.659-62.458 0.54-0.102 1.077-0.128 1.642-0.128 4.437 0 8.566 2.462 10.593 6.489 2.282 4.488 1.384 9.927-2.231 13.492-27.216 26.906-45.965 83.671-52.968 160.158 36.936 51.018 56.43 109.987 56.43 170.856 0 174.215-159.261 315.907-355.023 315.907v0zM705.377 345.036c0-21.25-17.226-38.476-38.476-38.476s-38.476 17.226-38.476 38.476c0 21.25 17.226 38.476 38.476 38.476s38.476-17.226 38.476-38.476zM397.576 345.036c0-21.25-17.226-38.476-38.476-38.476s-38.476 17.226-38.476 38.476c0 21.25 17.226 38.476 38.476 38.476s38.476-17.226 38.476-38.476zM551.477 345.036c0-21.25-17.226-38.476-38.476-38.476s-38.476 17.226-38.476 38.476c0 21.25 17.226 38.476 38.476 38.476s38.476-17.226 38.476-38.476z" />
<glyph unicode="&#xe917;" glyph-name="zen_navigation_close" d="M548.096 320l325.888 325.888c5.492 4.723 8.948 11.68 8.948 19.444 0 14.138-11.462 25.6-25.6 25.6-7.764 0-14.721-3.456-19.416-8.915l-325.916-325.922-325.888 325.888c-4.447 3.826-10.277 6.156-16.652 6.156-14.138 0-25.6-11.462-25.6-25.6 0-6.374 2.33-12.204 6.184-16.685l325.86-325.854-325.888-325.888c-3.826-4.447-6.156-10.277-6.156-16.652 0-14.138 11.462-25.6 25.6-25.6 6.374 0 12.204 2.33 16.685 6.184l325.854 325.86 325.888-325.888c4.447-3.826 10.277-6.156 16.652-6.156 14.138 0 25.6 11.462 25.6 25.6 0 6.374-2.33 12.204-6.184 16.685z" />
<glyph unicode="&#xe918;" glyph-name="zen_navigation_close_small" d="M584.192 320l139.776 139.776c10.984 9.446 17.897 23.36 17.897 38.889 0 28.277-22.923 51.2-51.2 51.2-15.528 0-29.442-6.913-38.832-17.829l-139.833-139.843-139.776 139.776c-8.895 7.652-20.555 12.311-33.303 12.311-28.277 0-51.2-22.923-51.2-51.2 0-12.749 4.659-24.409 12.368-33.371l139.719-139.709-139.776-139.776c-7.652-8.895-12.311-20.555-12.311-33.303 0-28.277 22.923-51.2 51.2-51.2 12.749 0 24.409 4.659 33.371 12.368l139.709 139.719 139.776-139.776c9.446-10.984 23.36-17.897 38.889-17.897 28.277 0 51.2 22.923 51.2 51.2 0 15.528-6.913 29.442-17.829 38.832z" />
<glyph unicode="&#xe919;" glyph-name="zen_navigation_dropdown_down" d="M513.001 208.271l-205.132 205.166h410.299l-205.166-205.166z" />
<glyph unicode="&#xe91a;" glyph-name="zen_navigation_dropdown_up" d="M513.001 413.403l205.166-205.166h-410.333l205.166 205.166z" />
<glyph unicode="&#xe91b;" glyph-name="zen_navigation_link" d="M228.465 610.413c56.763 56.763 149.129 56.763 205.893 0l102.959-102.985c8.748-8.748 8.748-22.93 0-31.678s-22.93-8.748-31.678 0l-102.934 102.985c-18.929 18.929-44.246 29.37-71.257 29.37-27.034 0-52.326-10.439-71.282-29.396-18.929-18.955-29.37-44.272-29.37-71.308s10.439-52.352 29.37-71.308l134.611-134.689c39.321-39.295 103.242-39.295 142.563 0 8.748 8.748 22.93 8.748 31.678 0s8.748-22.93 0-31.678c-28.395-28.395-65.664-42.58-102.959-42.58s-74.565 14.185-102.934 42.58l-134.636 134.689c-27.42 27.42-42.528 63.996-42.528 102.985 0 39.014 15.108 75.591 42.502 103.011zM497.714 198.446l87.108-87.159c18.929-18.955 44.246-29.396 71.282-29.396 27.009 0 52.326 10.439 71.282 29.396 39.295 39.321 39.295 103.293 0 142.614l-126.712 126.763c-18.929 18.929-44.246 29.37-71.282 29.37-27.009 0-52.326-10.439-71.257-29.37-8.748-8.748-22.93-8.748-31.678 0s-8.748 22.956 0 31.704c56.737 56.763 149.104 56.763 205.893 0l126.712-126.789c27.395-27.395 42.476-63.996 42.476-102.985s-15.108-75.566-42.502-102.985c-27.395-27.42-63.945-42.528-102.934-42.528s-75.54 15.108-102.959 42.528l-87.108 87.159c-8.748 8.748-8.748 22.93 0 31.678 8.773 8.748 22.93 8.748 31.678 0z" />
<glyph unicode="&#xe91c;" glyph-name="zen_navigation_show" d="M813.081 81.124l-147.898 147.898c36.654 44.709 58.764 101.959 58.764 164.339 0 143.128-116.143 259.271-259.271 259.271-143.256 0-259.271-116.143-259.271-259.271s116.015-259.271 259.271-259.271c62.407 0 119.53 21.956 164.211 58.636l147.898-147.77c10.030-10.055 26.241-10.055 36.294 0 10.030 9.927 10.030 26.241 0 36.166zM464.677 185.699c-114.63 0-207.792 93.161-207.792 207.664s93.161 207.792 207.792 207.792c114.502 0 207.792-93.289 207.792-207.792s-93.289-207.664-207.792-207.664z" />
<glyph unicode="&#xe91d;" glyph-name="zen_service_ecommerce" d="M821.477 131.645h-483.872l67.673 90.819 2.41-0.907c6.781-2.555 13.886-3.848 21.111-3.848h405.537c26.017 0 47.179 21.316 47.179 47.512v323.405c0 4.806-3.874 8.712-8.626 8.712h-655.248l-0.949 1.864-24.965 48.873c-12.542 24.556-37.381 39.809-64.809 39.809h-50.745c-4.755 0-8.626-3.908-8.626-8.712s3.874-8.703 8.626-8.703h50.745c20.938 0 39.895-11.636 49.47-30.379l199.027-389.573c3.249-6.361 7.549-12.047 12.773-16.894l2.248-2.086-1.839-2.462-72.701-97.572-1.504-0.145c-30.848-3.052-54.105-28.916-54.105-60.159 0-33.329 26.923-60.449 60.031-60.449s60.031 27.12 60.031 60.449c0 13.739-4.497 26.71-13.005 37.501l-4.36 5.531h415.822l-4.36-5.531c-8.507-10.791-13.005-23.76-13.005-37.501 0-33.329 26.923-60.449 60.031-60.449 33.097 0 60.031 27.12 60.031 60.449 0.009 33.329-26.923 60.449-60.022 60.449zM229.081 574.939l-2.538 4.976h637.721v-314.683c0-16.595-13.423-30.095-29.925-30.095h-405.545c-16.1 0-30.678 8.952-38.047 23.359l-161.664 316.445zM363.103 71.196c0-23.726-19.187-43.032-42.776-43.032-23.581 0-42.776 19.306-42.776 43.032 0 23.717 19.178 43.024 42.759 43.041 23.607-0.009 42.793-19.315 42.793-43.041zM821.477 28.156c-23.581 0-42.776 19.306-42.776 43.032 0 23.735 19.187 43.041 42.776 43.041s42.776-19.306 42.776-43.041c0-23.726-19.187-43.032-42.776-43.032zM320.848 79.901c-2.274 0-4.488-0.924-6.079-2.538-1.625-1.625-2.547-3.865-2.547-6.165s0.924-4.539 2.53-6.147c1.608-1.634 3.822-2.555 6.096-2.555s4.488 0.924 6.079 2.538c1.625 1.625 2.547 3.865 2.547 6.165s-0.924 4.539-2.53 6.156c-1.608 1.625-3.822 2.547-6.096 2.547zM822.008 79.901c-2.274 0-4.488-0.924-6.079-2.538-1.625-1.625-2.547-3.874-2.547-6.173s0.924-4.539 2.53-6.147c1.608-1.634 3.822-2.555 6.096-2.555s4.488 0.924 6.079 2.538c1.625 1.625 2.547 3.865 2.547 6.165s-0.924 4.539-2.53 6.156c-1.608 1.634-3.831 2.555-6.096 2.555zM757.754 519.714c-4.755 0-8.626-3.908-8.626-8.712v-206.97c0-4.806 3.874-8.712 8.626-8.712s8.626 3.908 8.626 8.712v206.979c0 4.797-3.865 8.703-8.626 8.703zM680.659 519.714c-4.755 0-8.626-3.908-8.626-8.712v-206.97c0-4.806 3.874-8.712 8.626-8.712s8.626 3.908 8.626 8.712v206.979c0 4.797-3.874 8.703-8.626 8.703zM603.555 519.714c-4.755 0-8.626-3.908-8.626-8.712v-206.97c0-4.806 3.874-8.712 8.626-8.712s8.626 3.908 8.626 8.712v206.979c0 4.797-3.874 8.703-8.626 8.703zM526.451 519.714c-4.755 0-8.626-3.908-8.626-8.712v-206.97c0-4.806 3.874-8.712 8.626-8.712s8.626 3.908 8.626 8.712v206.979c0 4.797-3.865 8.703-8.626 8.703zM449.355 519.714c-4.755 0-8.626-3.908-8.626-8.712v-206.97c0-4.806 3.874-8.712 8.626-8.712s8.626 3.908 8.626 8.712v206.979c0 4.797-3.874 8.703-8.626 8.703z" />
<glyph unicode="&#xe91e;" glyph-name="zen_service_mobile" d="M651.674 678.248h-277.346c-30.285 0-54.918-24.709-54.918-55.080v-556.265c0-30.37 24.641-55.080 54.918-55.080h277.346c30.285 0 54.918 24.709 54.918 55.080v556.273c0.009 30.37-24.633 55.071-54.918 55.071zM689.2 102.395v-35.492c0-20.75-16.834-37.629-37.527-37.629h-277.346c-20.691 0-37.527 16.877-37.527 37.629v37.629h352.406v-2.137zM689.2 565.952v-443.96h-352.398v446.098h352.406v-2.137zM689.2 587.677v-2.137h-352.398v37.629c0 20.75 16.834 37.629 37.527 37.629h277.346c20.691 0 37.527-16.877 37.527-37.629v-35.492zM547.672 631.899h-69.333c-4.797 0-8.694-3.916-8.694-8.731s3.899-8.731 8.694-8.731h69.333c4.797 0 8.694 3.916 8.694 8.731s-3.899 8.731-8.694 8.731zM513.001 79.729c-7.054 0-12.79-5.755-12.79-12.826s5.738-12.826 12.79-12.826c7.054 0 12.79 5.755 12.79 12.826s-5.738 12.826-12.79 12.826zM594.338 451.801h-91.408c-4.729 0-8.575-3.618-8.575-8.054s3.848-8.054 8.575-8.054h91.408c4.729 0 8.575 3.618 8.575 8.054s-3.848 8.054-8.575 8.054zM594.338 349.329h-91.408c-4.729 0-8.575-3.677-8.575-8.199s3.848-8.208 8.575-8.208h91.408c4.729 0 8.575 3.677 8.575 8.208 0 4.514-3.848 8.199-8.575 8.199zM594.338 236.297h-91.408c-4.729 0-8.575-3.609-8.575-8.054s3.848-8.054 8.575-8.054h91.408c4.729 0 8.575 3.618 8.575 8.054 0 4.445-3.848 8.054-8.575 8.054zM431.776 241.069c-7.054 0-12.79-5.755-12.79-12.826s5.738-12.826 12.79-12.826c7.054 0 12.79 5.755 12.79 12.826s-5.738 12.826-12.79 12.826zM431.776 353.946c-7.054 0-12.79-5.755-12.79-12.826s5.738-12.826 12.79-12.826c7.054 0 12.79 5.755 12.79 12.826s-5.738 12.826-12.79 12.826zM431.776 456.563c-7.054 0-12.79-5.755-12.79-12.826s5.738-12.826 12.79-12.826c7.054 0 12.79 5.755 12.79 12.826s-5.738 12.826-12.79 12.826z" />
<glyph unicode="&#xe91f;" glyph-name="zen_service_portals" d="M845.041 472.578c0 42.938-34.833 77.874-77.652 77.874h-130.481v49.676c0 30.155-24.462 54.685-54.523 54.685h-138.767c-30.061 0-54.523-24.53-54.523-54.685v-49.676h-130.481c-42.819 0-77.652-34.935-77.652-77.874v-185.518c0-17.212 8.268-33.636 22.111-43.939l1.077-0.804-0.043-1.342-0.017-127.832c0-42.938 34.833-77.874 77.652-77.874h462.522c42.819 0 77.652 34.935 77.652 77.874v128.824l1.017 1.154c13.843 10.303 22.111 26.719 22.111 43.939v185.518zM405.647 553.016v47.111c0 20.989 17.032 38.073 37.971 38.073h138.758c20.938 0 37.979-17.084 37.979-38.073v-49.676h-29.703v49.676c0 4.582-3.711 8.302-8.276 8.302h-138.758c-4.565 0-8.276-3.729-8.276-8.302v-49.676h-29.703v2.566zM574.1 591.824v-41.364h-122.205v41.364h122.205zM805.361 231.159v-118.016c0-33.781-27.412-61.261-61.108-61.261h-462.514c-33.696 0-61.099 27.48-61.099 61.261v121.205l3.112-0.685c3.891-0.855 7.841-1.291 11.73-1.291h61.099v-14.887c0-17.365 14.091-31.499 31.405-31.499h23.129c17.314 0 31.405 14.134 31.405 31.499v14.887h260.964v-14.887c0-17.365 14.091-31.499 31.405-31.499h23.129c17.314 0 31.405 14.134 31.405 31.499v14.887h61.108c3.899 0 7.841 0.435 11.73 1.291l3.112 0.685v-3.189zM315.709 232.372h50.265v-14.887c0-8.208-6.66-14.887-14.851-14.887h-23.129c-8.191 0-14.851 6.679-14.851 14.887v14.887h2.566zM313.145 248.987v14.887c0 8.208 6.66 14.887 14.851 14.887h23.129c8.191 0 14.851-6.679 14.851-14.887v-14.887h-52.831zM662.601 232.372h50.265v-14.887c0-8.208-6.66-14.887-14.851-14.887h-23.129c-8.191 0-14.851 6.679-14.851 14.887v14.887h2.566zM660.037 248.987v14.887c0 8.208 6.66 14.887 14.851 14.887h23.129c8.191 0 14.851-6.679 14.851-14.887v-14.887h-52.831zM828.488 287.059c0-20.999-17.032-38.073-37.979-38.073h-61.108v14.887c0 17.365-14.091 31.499-31.405 31.499h-23.129c-17.314 0-31.405-14.134-31.405-31.499v-14.887h-260.947v14.887c0 17.365-14.091 31.499-31.405 31.499h-23.129c-17.314 0-31.405-14.134-31.405-31.499v-14.887h-61.099c-20.938 0-37.979 17.084-37.979 38.073v185.518c0 33.781 27.412 61.27 61.108 61.27h508.769c33.696 0 61.099-27.489 61.099-61.27v-185.518z" />
<glyph unicode="&#xe920;" glyph-name="zen_service_promo" d="M861.329 401.21c0 24.692-15.45 46.88-38.442 55.216l-1.461 0.531v188.921l-351.987-124.617-0.907 0.565c-3.3 2.052-7.003 3.138-10.721 3.138h-214.803c-11.38 0-20.631-9.388-20.631-20.93v-45.667l-1.779-0.367c-32.405-6.679-55.927-35.893-55.927-69.452s23.521-62.765 55.935-69.452l1.77-0.367v-32.25c0-11.542 9.26-20.93 20.631-20.93h61.441v-165.802c0-30.635 24.598-55.566 54.841-55.566h6.173c30.242 0 54.841 24.923 54.841 55.566v165.819h37.51c4.403 0 8.652 1.453 12.286 4.215l0.958 0.719 1.128-0.401 349.243-123.643v199.010l1.461 0.531c22.99 8.336 38.442 30.524 38.442 55.216zM222.377 437.505v-100.899l-2.873 0.872c-22.12 6.73-37.569 27.728-37.569 51.078 0 23.342 15.45 44.348 37.569 51.078l2.873 0.872v-3.001zM403.040 261.529v-161.767c0-20.964-16.851-38.030-37.578-38.030h-6.173c-20.716 0-37.578 17.058-37.578 38.030v163.989h81.319v-2.223zM461.496 505.195v-222.096h-218.419c-1.898 0-3.445 1.521-3.445 3.385v31.388l0.29 0.026v141.281l-0.29 2.086v42.768c0 1.864 1.549 3.385 3.445 3.385h218.419v-2.223zM804.164 618.048v-158.287h-0.034v-119.153l0.034-0.162v-169.299l-325.722 115.306v219.154l1.453 0.787 324.26 114.801v-3.146zM824.829 366.249l-3.411-2.146v74.213l3.411-2.146c12.047-7.583 19.238-20.657 19.238-34.961s-7.191-27.378-19.238-34.961z" />
<glyph unicode="&#xe921;" glyph-name="zen_social_behance" d="M741.355 468.602h-141.93v34.474h141.965l-0.034-34.474zM504.896 327.219c9.166-13.886 13.748-30.712 13.748-50.513 0-20.452-5.164-38.817-15.663-54.994-6.67-10.704-14.98-19.767-24.931-27.086-11.218-8.447-24.522-14.227-39.775-17.305-15.322-3.112-31.908-4.652-49.762-4.652h-158.757v344.737h170.248c42.921-0.685 73.326-12.826 91.28-36.731 10.774-14.637 16.109-32.216 16.109-52.633 0-21.068-5.403-37.928-16.279-50.754-6.054-7.182-14.98-13.713-26.847-19.631 17.921-6.395 31.533-16.518 40.63-30.439zM311.050 381.494h74.591c15.322 0 27.736 2.839 37.277 8.549s14.296 15.8 14.296 30.336c0 16.041-6.293 26.676-18.947 31.806-10.876 3.556-24.761 5.403-41.622 5.403h-65.596v-76.095zM444.362 281.664c0 17.886-7.489 30.302-22.401 36.936-8.345 3.763-20.145 5.712-35.259 5.849h-75.651v-91.862h74.488c15.322 0 27.155 1.95 35.705 6.054 15.39 7.455 23.12 21.785 23.12 43.024zM794.024 337.717c1.711-11.286 2.496-27.634 2.189-49.043h-183.826c1.026-24.829 9.782-42.168 26.369-52.121 10.021-6.224 22.162-9.268 36.39-9.268 15.015 0 27.224 3.694 36.629 11.32 5.13 4.036 9.644 9.748 13.577 16.93h67.375c-1.779-14.637-9.885-29.515-24.453-44.632-22.572-24.008-54.276-36.047-94.974-36.047-33.619 0-63.237 10.158-88.955 30.405-25.616 20.315-38.51 53.25-38.51 98.907 0 42.853 11.559 75.651 34.747 98.462 23.291 22.879 53.318 34.233 90.322 34.233 21.956 0 41.725-3.831 59.371-11.559 17.579-7.73 32.147-19.869 43.572-36.561 10.397-14.637 17.067-31.635 20.179-51.027zM727.676 331.288c-1.231 17.169-7.114 30.164-17.647 39.022-10.465 8.893-23.53 13.372-39.125 13.372-16.964 0-30.061-4.789-39.398-14.159-9.371-9.371-15.219-22.094-17.613-38.235h113.784z" />
<glyph unicode="&#xe922;" glyph-name="zen_social_facebook" d="M561.874 455.4v55.165c0 8.276 0.375 14.705 1.128 19.221 0.787 4.514 2.496 8.995 5.198 13.406s7.045 7.455 13.099 9.132c6.019 1.677 14.057 2.53 24.077 2.53h54.617v110.33h-87.347c-50.547 0-86.835-12.107-108.893-36.32s-33.071-59.883-33.071-107.046v-66.451h-65.425v-110.33h65.425v-320.147h131.226v320.147h87.347l11.559 110.33h-98.942z" />
<glyph unicode="&#xe923;" glyph-name="zen_social_linkedin" d="M771.554 289.325v-190.529h-110.842v177.806c0 44.666-16.041 75.137-56.157 75.137-30.643 0-48.838-20.554-56.875-40.424-2.907-7.114-3.694-16.998-3.694-26.915v-185.604h-110.876c0 0 1.504 301.098 0 332.323h110.842v-47.094c-0.239-0.341-0.514-0.719-0.719-1.094h0.719v1.094c14.739 22.606 41.040 54.892 99.898 54.892 73.017 0 127.704-47.503 127.704-149.591zM317.172 591.277c-37.928 0-62.723-24.795-62.723-57.388 0-31.874 24.077-57.456 61.253-57.456h0.753c38.647 0 62.723 25.548 62.723 57.456-0.753 32.593-24.042 57.388-62.005 57.388zM261.050 98.796h110.842v332.323h-110.842v-332.323z" />
</font>
</defs>
</svg>
